# 3ds Max Wavefront OBJ Exporter v0.97b - (c)2007 guruware
# 创建的文件:28.03.2019 21:31:56

mtllib A14.mtl

#
# object A14
#

v  -24314.0156 -62.4911 -18653.1289
v  -27664.6094 -62.4911 -18654.9199
v  -27664.6094 2501.4292 -18654.9199
v  -24314.0156 2501.4292 -18653.1289
v  -27698.8125 -62.4916 -15463.9277
v  -27698.8125 2501.4287 -15463.9277
v  -24283.2031 -62.4916 -15462.1016
v  -24283.2031 2501.4287 -15462.1016
v  -20663.5938 -44.5969 -15356.0469
v  -20663.5938 12421.2158 -15356.0449
v  -24540.1719 12421.2158 -15356.0449
v  -24540.1719 -44.5969 -15356.0469
v  -20692.0938 11344.8604 -15388.2168
v  -20692.0938 11344.8604 -20119.1426
v  -24465.7969 11344.8604 -20119.1426
v  -24465.7969 11344.8604 -15388.2168
v  -20663.5938 12421.2158 -20118.1465
v  -20663.5938 -44.5961 -20118.1484
v  -24540.1719 -44.5961 -20118.1484
v  -24540.1719 12421.2158 -20118.1465
v  -20692.0938 12421.2158 -15388.2168
v  -24465.7969 12421.2158 -15388.2168
v  -24465.7969 12421.2158 -20119.1426
v  -20692.0938 12421.2158 -20119.1426
v  -21871.9063 11200.6338 -16551.5801
v  -21871.9063 11773.3799 -16551.5801
v  -23314.2813 11773.3799 -16551.5801
v  -23314.2813 11200.6338 -16551.5801
v  -21871.9063 11773.3799 -18889.7715
v  -23314.2813 11773.3799 -18889.7715
v  -21871.9063 11200.6338 -18889.7715
v  -23314.2813 11200.6338 -18889.7715
# 32 vertices

vn 0.0000 0.0000 -1.0000
vn -1.0000 0.0000 -0.0000
vn 0.0000 0.0000 1.0000
vn 1.0000 0.0000 -0.0000
vn 0.0000 1.0000 -0.0000
# 5 vertex normals

vt 0.0008 0.0012 0.0000
vt 0.9992 0.0012 0.0000
vt 0.9992 0.1443 0.0000
vt 0.0008 0.1443 0.0000
vt 1.0000 1.0000 0.0000
vt -0.0000 1.0000 0.0000
vt -0.0000 0.0000 0.0000
vt 1.0000 0.0000 0.0000
vt 0.0008 0.9989 0.0000
vt 0.9992 0.9989 0.0000
vt 1.0000 0.0465 0.0000
vt 1.0000 0.9535 0.0000
vt 2.0000 0.9535 0.0000
vt 2.0000 0.0465 0.0000
vt 0.9992 0.9915 0.0000
vt 0.0008 0.9915 0.0000
vt 0.9992 0.9354 0.0000
vt 0.0008 0.9354 0.0000
vt 0.7494 0.8814 0.0000
vt 0.7494 0.9962 0.0000
vt 0.9988 0.9962 0.0000
vt 0.9988 0.8814 0.0000
vt 0.2519 0.2519 0.0000
vt 0.2519 0.7481 0.0000
vt 0.7481 0.7481 0.0000
vt 0.7481 0.2519 0.0000
vt 0.5000 0.9962 0.0000
vt 0.5000 0.8814 0.0000
vt 0.2506 0.8814 0.0000
vt 0.2506 0.9962 0.0000
vt 0.0012 0.8814 0.0000
vt 0.0012 0.9962 0.0000
# 32 texture coords

o A14
g A14
usemtl lou_a3
s off
f 1/1/1 2/2/1 3/3/1 4/4/1 
f 3/4/2 2/1/2 5/2/2 6/3/2 
f 5/1/3 7/2/3 8/3/3 6/4/3 
f 7/1/4 1/2/4 4/3/4 8/4/4 
f 4/5/5 3/6/5 6/7/5 8/8/5 
f 9/1/3 10/9/3 11/10/3 12/2/3 
usemtl louban
f 13/11/5 14/12/5 15/13/5 16/14/5 
usemtl lou_a3
f 17/10/1 18/2/1 19/1/1 20/9/1 
f 12/1/2 11/9/2 20/10/2 19/2/2 
f 18/1/4 17/9/4 10/10/4 9/2/4 
f 10/10/5 21/15/5 22/16/5 11/9/5 
f 11/10/5 22/15/5 23/16/5 20/9/5 
f 20/10/5 23/15/5 24/16/5 17/9/5 
f 17/10/5 24/15/5 21/16/5 10/9/5 
f 21/10/1 13/17/1 16/18/1 22/9/1 
f 22/10/4 16/17/4 15/18/4 23/9/4 
f 23/10/3 15/17/3 14/18/3 24/9/3 
f 24/10/2 14/17/2 13/18/2 21/9/2 
f 25/19/3 26/20/3 27/21/3 28/22/3 
usemtl louban
f 26/23/5 29/24/5 30/25/5 27/26/5 
usemtl lou_a3
f 29/27/1 31/28/1 32/29/1 30/30/1 
f 28/31/2 27/32/2 30/30/2 32/29/2 
f 31/28/4 29/27/4 26/20/4 25/19/4 
# 23 polygons

