# 3ds Max Wavefront OBJ Exporter v0.97b - (c)2007 guruware
# 创建的文件:28.03.2019 21:35:08

mtllib A2.mtl

#
# object A2
#

v  -36518.9609 -188.1969 29388.5957
v  -31711.7383 -188.1969 29388.5957
v  -31711.7383 18512.8730 29388.5996
v  -36518.9609 18512.8730 29388.5996
v  -36479.3008 18014.6250 29343.8125
v  -31751.3965 18014.6250 29343.8125
v  -31751.3965 18014.6250 25055.5293
v  -36479.3008 18014.6250 25055.5293
v  -36518.9609 18512.8730 25010.7422
v  -31711.7383 18512.8730 25010.7422
v  -31711.7383 -188.1962 25010.7383
v  -36518.9609 -188.1962 25010.7383
v  -31751.3965 18512.8730 29343.8125
v  -36479.3008 18512.8730 29343.8125
v  -31751.3965 18512.8730 25055.5293
v  -36479.3008 18512.8730 25055.5293
v  -34968.2656 17813.8672 28052.5879
v  -33262.4336 17813.8672 28052.5879
v  -33262.4336 18611.1152 28052.5898
v  -34968.2656 18611.1152 28052.5898
v  -33262.4336 18611.1152 26346.7539
v  -34968.2656 18611.1152 26346.7539
v  -33262.4336 17813.8672 26346.7520
v  -34968.2656 17813.8672 26346.7520
# 24 vertices

vn 0.0000 0.0000 1.0000
vn 0.0000 1.0000 -0.0000
vn 0.0000 0.0000 -1.0000
vn 1.0000 0.0000 -0.0000
vn -1.0000 0.0000 -0.0000
# 5 vertex normals

vt -1.9992 0.0012 0.0000
vt -1.0008 0.0012 0.0000
vt -1.0008 5.0828 0.0000
vt -1.9992 5.0828 0.0000
vt 1.0000 0.8510 0.0000
vt 2.0000 0.8510 0.0000
vt 2.0000 1.7580 0.0000
vt 1.0000 1.7580 0.0000
vt 0.9992 1.8034 0.0000
vt 0.0008 1.8034 0.0000
vt 0.0008 1.7960 0.0000
vt 0.9992 1.7960 0.0000
vt 0.0008 1.7399 0.0000
vt 0.9992 1.7399 0.0000
vt 0.7494 1.6859 0.0000
vt 0.9988 1.6859 0.0000
vt 0.9988 1.8007 0.0000
vt 0.7494 1.8007 0.0000
vt 0.2519 1.0564 0.0000
vt 0.7481 1.0564 0.0000
vt 0.7481 1.5526 0.0000
vt 0.2519 1.5526 0.0000
vt 0.5000 1.8007 0.0000
vt 0.2506 1.8007 0.0000
vt 0.2506 1.6859 0.0000
vt 0.5000 1.6859 0.0000
vt 0.0012 1.6859 0.0000
vt 0.0012 1.8007 0.0000
# 28 texture coords

o A2
g A2
usemtl lou_a4
s off
f 1/1/1 2/2/1 3/3/1 4/4/1 
usemtl louban
f 5/5/2 6/6/2 7/7/2 8/8/2 
usemtl lou_a4
f 9/3/3 10/4/3 11/1/3 12/2/3 
f 2/1/4 11/2/4 10/3/4 3/4/4 
f 12/1/5 1/2/5 4/3/5 9/4/5 
f 4/9/2 3/10/2 13/11/2 14/12/2 
f 3/9/2 10/10/2 15/11/2 13/12/2 
f 10/9/2 9/10/2 16/11/2 15/12/2 
f 9/9/2 4/10/2 14/11/2 16/12/2 
f 14/9/3 13/10/3 6/13/3 5/14/3 
f 13/9/5 15/10/5 7/13/5 6/14/5 
f 15/9/1 16/10/1 8/13/1 7/14/1 
f 16/9/4 14/10/4 5/13/4 8/14/4 
f 17/15/1 18/16/1 19/17/1 20/18/1 
usemtl louban
f 20/19/2 19/20/2 21/21/2 22/22/2 
usemtl lou_a4
f 22/23/3 21/24/3 23/25/3 24/26/3 
f 18/27/4 23/25/4 21/24/4 19/28/4 
f 24/26/5 17/15/5 20/18/5 22/23/5 
# 18 polygons

