# 3ds Max Wavefront OBJ Exporter v0.97b - (c)2007 guruware
# 创建的文件:28.03.2019 21:26:22

mtllib A35.mtl

#
# object A35
#

v  33654.6563 -306.3034 -14103.7813
v  33357.5625 -306.3034 -14044.6914
v  33358.6953 2573.4485 -14044.5527
v  33656.4375 2573.4485 -14103.7813
v  33105.7344 -306.3034 -13876.4160
v  33106.2891 2573.4485 -13875.8828
v  32937.4688 -306.3034 -13624.5762
v  32937.6172 2573.4485 -13623.4531
v  32878.3594 -306.3035 -13327.5088
v  32878.3594 2573.4485 -13325.6875
v  40003.5469 2573.4485 -14103.7813
v  40301.3047 2573.4485 -14044.5527
v  40302.4375 -306.3034 -14044.6914
v  40005.3438 -306.3034 -14103.7813
v  40553.7031 2573.4485 -13875.8818
v  40554.2656 -306.3034 -13876.4160
v  40722.3672 2573.4485 -13623.4512
v  40722.5313 -306.3034 -13624.5762
v  40781.6406 2573.4485 -13325.6855
v  40781.6406 -306.3035 -13327.5088
v  33717.2422 2573.4485 -14053.7666
v  39942.7500 2573.4485 -14053.7666
v  33715.3828 2086.9973 -14053.7666
v  39944.6016 2086.9973 -14053.7666
v  32939.1484 2573.4485 -13275.6729
v  32998.3594 2573.4485 -13573.4375
v  33167.0313 2573.4485 -13825.8691
v  33419.4297 2573.4485 -13994.5371
v  40240.5000 2573.4485 -13994.5371
v  40492.9688 2573.4485 -13825.8672
v  40661.6406 2573.4485 -13573.4355
v  40720.8281 2573.4485 -13275.6699
v  32939.1484 2086.9973 -13277.4941
v  32998.2031 2086.9973 -13574.5615
v  33166.4688 2086.9973 -13826.4014
v  33418.3516 2086.9973 -13994.6758
v  40241.6250 2086.9973 -13994.6758
v  40493.4609 2086.9973 -13826.4014
v  40661.7813 2086.9973 -13574.5615
v  40720.8281 2086.9973 -13277.4941
v  40781.6406 2573.4478 -9680.3711
v  40752.0000 2573.4478 -9531.4863
v  40752.0859 -306.3041 -9530.9238
v  40781.6406 -306.3041 -9679.4570
v  40667.6953 2573.4478 -9405.2734
v  40667.9531 -306.3041 -9405.0020
v  40541.4688 2573.4478 -9320.9355
v  40542.0391 -306.3041 -9320.8652
v  40392.5625 2573.4478 -9291.3223
v  40393.5078 -306.3041 -9291.3223
v  32939.1484 2573.4478 -9730.3848
v  32968.7344 2573.4478 -9581.5039
v  32968.6953 2086.9966 -9580.9414
v  32939.1484 2086.9966 -9729.4746
v  33053.0938 2573.4478 -9455.2871
v  33052.8281 2086.9966 -9455.0215
v  33179.3125 2573.4478 -9370.9531
v  33178.7500 2086.9966 -9370.8828
v  33328.1641 2573.4478 -9341.3398
v  33327.2734 2086.9966 -9341.3398
v  33267.4375 2573.4478 -9291.3223
v  33266.5234 -306.3041 -9291.3223
v  40331.8125 2573.4478 -9341.3398
v  40332.7188 2086.9966 -9341.3398
v  32878.3594 -306.3041 -9679.4570
v  32878.3594 2573.4478 -9680.3691
v  40720.8281 2573.4478 -9730.3887
v  40720.8281 2086.9966 -9729.4746
v  32907.9141 -306.3041 -9530.9238
v  32907.9922 2573.4478 -9531.4863
v  32992.0469 -306.3041 -9405.0020
v  32992.3359 2573.4478 -9405.2734
v  33117.9609 -306.3041 -9320.8652
v  33118.5234 2573.4478 -9320.9336
v  40691.2422 2573.4478 -9581.5059
v  40606.8984 2573.4478 -9455.2871
v  40480.6641 2573.4478 -9370.9531
v  40691.2813 2086.9966 -9580.9414
v  40607.1484 2086.9966 -9455.0215
v  40481.2266 2086.9966 -9370.8828
v  36829.9922 2086.9961 -11620.4551
v  36156.8125 13718.2637 -9906.7988
v  37834.8438 13718.2637 -9906.7988
v  37834.8438 14674.5664 -9906.7988
v  36156.8125 14674.5664 -9906.7988
v  37834.8438 14674.5664 -11309.8516
v  36156.8125 14674.5664 -11309.8516
v  37834.8438 13718.2637 -11309.8516
v  36156.8125 13718.2637 -11309.8516
v  34715.6719 -79.1171 -9594.1807
v  34803.7578 -79.1172 -9151.3125
v  34804.4453 15171.3184 -9156.7607
v  34715.6719 15171.3184 -9603.0088
v  35054.6328 -79.1172 -8775.8672
v  35057.2266 15171.3174 -8778.4512
v  35430.0625 -79.1173 -8525.0029
v  35435.5156 15171.3174 -8525.6729
v  35872.9375 -79.1173 -8436.9111
v  35881.7734 15171.3174 -8436.9082
v  37857.1250 -79.1173 -8436.9111
v  38300.0078 -79.1173 -8525.0029
v  38294.5469 15171.3174 -8525.6729
v  37848.2969 15171.3174 -8436.9082
v  38675.4375 -79.1172 -8775.8672
v  38672.8438 15171.3174 -8778.4512
v  38926.3125 -79.1172 -9151.3125
v  38925.6250 15171.3184 -9156.7607
v  39014.3906 -79.1171 -9594.1807
v  39014.3906 15171.3184 -9603.0088
v  34715.6719 15171.3184 -11615.0439
v  34804.4453 15171.3184 -12061.2920
v  34803.7578 -79.1167 -12066.7461
v  34715.6719 -79.1168 -11623.8789
v  35057.2266 15171.3184 -12439.6025
v  35054.6328 -79.1166 -12442.1914
v  35435.5156 15171.3184 -12692.3809
v  35430.0625 -79.1166 -12693.0566
v  35881.7734 15171.3184 -12781.1455
v  35872.9375 -79.1166 -12781.1484
v  37848.2969 15171.3184 -12781.1455
v  38294.5469 15171.3184 -12692.3809
v  38300.0078 -79.1166 -12693.0566
v  37857.1250 -79.1166 -12781.1484
v  38672.8438 15171.3184 -12439.6025
v  38675.4375 -79.1166 -12442.1914
v  38925.6250 15171.3184 -12061.2920
v  38926.3125 -79.1167 -12066.7461
v  39014.3906 15171.3184 -11615.0439
v  39014.3906 -79.1168 -11623.8789
v  37819.3281 15171.3174 -8478.1992
v  35910.7344 15171.3174 -8478.1992
v  38985.4375 15171.3184 -11573.7539
v  38985.4375 15171.3184 -9644.2998
v  35910.7344 15171.3184 -12739.8545
v  37819.3281 15171.3184 -12739.8545
v  34744.6328 15171.3184 -9644.2998
v  34744.6328 15171.3184 -11573.7539
v  37828.1719 13880.5166 -8478.2002
v  35901.8984 13880.5166 -8478.2002
v  38985.4375 13880.5176 -11582.5859
v  38985.4375 13880.5176 -9635.4688
v  35901.8984 13880.5176 -12739.8555
v  37828.1719 13880.5176 -12739.8555
v  34744.6328 13880.5176 -9635.4688
v  34744.6328 13880.5176 -11582.5859
v  35464.4844 15171.3174 -8566.9629
v  35086.1875 15171.3174 -8819.7422
v  34833.4063 15171.3184 -9198.0518
v  38896.6563 15171.3184 -9198.0518
v  38643.8828 15171.3174 -8819.7422
v  38265.5703 15171.3174 -8566.9629
v  34833.4063 15171.3184 -12020.0010
v  35086.1875 15171.3184 -12398.3115
v  35464.4844 15171.3184 -12651.0908
v  38265.5703 15171.3184 -12651.0908
v  38643.8828 15171.3184 -12398.3115
v  38896.6563 15171.3184 -12020.0010
v  35459.0469 13880.5166 -8566.2920
v  35083.5938 13880.5166 -8817.1563
v  34832.7422 13880.5176 -9192.6016
v  38897.3281 13880.5176 -9192.6016
v  38646.4766 13880.5166 -8817.1563
v  38271.0234 13880.5166 -8566.2920
v  38271.0234 13880.5176 -12651.7637
v  38646.4766 13880.5176 -12400.8984
v  38897.3281 13880.5176 -12025.4531
v  34832.7422 13880.5176 -12025.4531
v  35083.5938 13880.5176 -12400.8984
v  35459.0469 13880.5176 -12651.7637
v  36865.0469 13880.5156 -10609.0273
# 170 vertices

vn 0.0000 0.0000 -1.0000
vn -0.4061 0.0000 -0.9138
vn -0.7526 0.0000 -0.6585
vn -0.8944 0.0000 -0.4472
vn -1.0000 0.0000 -0.0000
vn 0.4061 0.0000 -0.9138
vn 0.7526 0.0000 -0.6585
vn 0.8944 0.0000 -0.4472
vn 1.0000 0.0000 -0.0000
vn 0.0000 1.0000 -0.0000
vn 0.0000 0.0000 1.0000
vn 0.8944 0.0000 0.4472
vn 0.7526 0.0000 0.6585
vn 0.4061 0.0000 0.9138
vn -0.4061 0.0000 0.9138
vn -0.7526 0.0000 0.6585
vn -0.8944 0.0000 0.4472
# 17 vertex normals

vt 0.9020 0.5926 0.0000
vt 0.9423 0.5926 0.0000
vt 0.9420 0.9989 0.0000
vt 0.9016 0.9989 0.0000
vt 0.9956 0.5926 0.0000
vt 0.9956 0.9989 0.0000
vt 0.0044 0.5926 0.0000
vt 0.0616 0.5926 0.0000
vt 0.0616 0.9989 0.0000
vt 0.0044 0.9989 0.0000
vt 0.1270 0.5926 0.0000
vt 0.1268 0.9989 0.0000
vt 0.0982 0.9989 0.0000
vt 0.0579 0.9989 0.0000
vt 0.0579 0.5926 0.0000
vt 0.0981 0.5926 0.0000
vt 0.9382 0.9989 0.0000
vt 0.9386 0.5926 0.0000
vt 0.8726 0.9989 0.0000
vt 0.8735 0.5926 0.0000
vt 0.9009 0.9989 0.0000
vt 0.0991 0.9989 0.0000
vt 0.1006 0.9915 0.0000
vt 0.8994 0.9915 0.0000
vt 0.8994 0.9989 0.0000
vt 0.1006 0.9989 0.0000
vt 0.1004 0.9354 0.0000
vt 0.8996 0.9354 0.0000
vt 0.9233 0.9989 0.0000
vt 0.8378 0.9989 0.0000
vt 0.8343 0.9915 0.0000
vt 0.9217 0.9915 0.0000
vt 0.9992 0.9989 0.0000
vt 0.9992 0.9915 0.0000
vt 0.0569 0.9989 0.0000
vt 0.0578 0.9915 0.0000
vt 0.0008 0.9989 0.0000
vt 0.0008 0.9915 0.0000
vt 0.9431 0.9989 0.0000
vt 0.9422 0.9915 0.0000
vt 0.1623 0.9989 0.0000
vt 0.0767 0.9989 0.0000
vt 0.0783 0.9915 0.0000
vt 0.1656 0.9915 0.0000
vt 0.9217 0.9989 0.0000
vt 0.8344 0.9989 0.0000
vt 0.8348 0.9354 0.0000
vt 0.9219 0.9354 0.0000
vt 0.9992 0.9354 0.0000
vt 0.0578 0.9989 0.0000
vt 0.0577 0.9354 0.0000
vt 0.0008 0.9354 0.0000
vt 0.9422 0.9989 0.0000
vt 0.9423 0.9354 0.0000
vt 0.1656 0.9989 0.0000
vt 0.0783 0.9989 0.0000
vt 0.0781 0.9354 0.0000
vt 0.1652 0.9354 0.0000
vt 0.0650 0.9989 0.0000
vt 0.0327 0.9989 0.0000
vt 0.0327 0.5926 0.0000
vt 0.0650 0.5926 0.0000
vt 0.9683 0.9989 0.0000
vt 0.9684 0.5926 0.0000
vt 0.9479 0.9989 0.0000
vt 0.9479 0.5926 0.0000
vt 0.0832 0.9989 0.0000
vt 0.0395 0.9989 0.0000
vt 0.0394 0.9354 0.0000
vt 0.0830 0.9354 0.0000
vt 0.9707 0.9989 0.0000
vt 0.9708 0.9354 0.0000
vt 0.9493 0.9989 0.0000
vt 0.9494 0.9354 0.0000
vt 0.0522 0.9989 0.0000
vt 0.0520 0.5926 0.0000
vt 0.9501 0.9989 0.0000
vt 0.0499 0.9989 0.0000
vt 0.0507 0.9915 0.0000
vt 0.9493 0.9915 0.0000
vt 0.0507 0.9989 0.0000
vt 0.0506 0.9354 0.0000
vt 0.9352 0.5926 0.0000
vt 0.9348 0.9989 0.0000
vt 0.0815 0.9989 0.0000
vt 0.0832 0.9915 0.0000
vt 0.9185 0.9989 0.0000
vt 0.9168 0.9915 0.0000
vt 0.9168 0.9989 0.0000
vt 0.9170 0.9354 0.0000
vt 0.9674 0.5926 0.0000
vt 0.9672 0.9989 0.0000
vt 0.0316 0.5926 0.0000
vt 0.0317 0.9989 0.0000
vt 0.9613 0.9989 0.0000
vt 0.9605 0.9915 0.0000
vt 0.0288 0.9989 0.0000
vt 0.0293 0.9915 0.0000
vt 0.0387 0.9989 0.0000
vt 0.0395 0.9915 0.0000
vt 0.9712 0.9989 0.0000
vt 0.9707 0.9915 0.0000
vt 0.9605 0.9989 0.0000
vt 0.9606 0.9354 0.0000
vt 0.0293 0.9989 0.0000
vt 0.0292 0.9354 0.0000
vt 2.8732 0.1640 0.0000
vt 2.8732 0.7807 0.0000
vt 2.2519 0.4926 0.0000
vt 2.8638 0.8323 0.0000
vt 2.8369 0.8761 0.0000
vt 2.7967 0.9054 0.0000
vt 2.7493 0.9156 0.0000
vt 1.7544 0.9156 0.0000
vt 1.7071 0.9054 0.0000
vt 1.6668 0.8761 0.0000
vt 1.6400 0.8323 0.0000
vt 1.6305 0.7807 0.0000
vt 1.6305 0.1640 0.0000
vt 1.6353 0.1381 0.0000
vt 1.6487 0.1163 0.0000
vt 1.6688 0.1016 0.0000
vt 1.6925 0.0965 0.0000
vt 2.8112 0.0965 0.0000
vt 2.8350 0.1016 0.0000
vt 2.8551 0.1163 0.0000
vt 2.8685 0.1381 0.0000
vt 0.7494 0.8814 0.0000
vt 0.9988 0.8814 0.0000
vt 0.9988 0.9962 0.0000
vt 0.7494 0.9962 0.0000
vt 0.3338 0.3352 0.0000
vt 0.7276 0.3352 0.0000
vt 0.7276 0.6644 0.0000
vt 0.3338 0.6644 0.0000
vt 0.5000 0.9962 0.0000
vt 0.2506 0.9962 0.0000
vt 0.2506 0.8814 0.0000
vt 0.5000 0.8814 0.0000
vt 0.0012 0.8814 0.0000
vt 0.0012 0.9962 0.0000
vt 0.7556 0.0005 0.0000
vt 0.8724 0.0005 0.0000
vt 0.8724 0.9989 0.0000
vt 0.7556 0.9989 0.0000
vt 0.9983 0.0005 0.0000
vt 0.9983 0.9989 0.0000
vt 0.0017 0.0005 0.0000
vt 0.1153 0.0005 0.0000
vt 0.1153 0.9989 0.0000
vt 0.0017 0.9989 0.0000
vt 0.2350 0.0005 0.0000
vt 0.2350 0.9989 0.0000
vt 0.7284 0.9989 0.0000
vt 0.2716 0.9989 0.0000
vt 0.2753 0.9915 0.0000
vt 0.7247 0.9915 0.0000
vt 0.7312 0.9989 0.0000
vt 0.2688 0.9989 0.0000
vt 0.2740 0.9915 0.0000
vt 0.7260 0.9915 0.0000
vt 0.7247 0.9989 0.0000
vt 0.2753 0.9989 0.0000
vt 0.2732 0.9354 0.0000
vt 0.7268 0.9354 0.0000
vt 0.7260 0.9989 0.0000
vt 0.2740 0.9989 0.0000
vt 0.2719 0.9354 0.0000
vt 0.7281 0.9354 0.0000
vt 0.8675 0.9989 0.0000
vt 0.8657 0.9915 0.0000
vt 0.1397 0.9989 0.0000
vt 0.1423 0.9915 0.0000
vt 0.8604 0.9989 0.0000
vt 0.8577 0.9915 0.0000
vt 0.1325 0.9989 0.0000
vt 0.1343 0.9915 0.0000
vt 0.8603 0.9989 0.0000
vt 0.8576 0.9915 0.0000
vt 0.8657 0.9989 0.0000
vt 0.8667 0.9354 0.0000
vt 0.1423 0.9989 0.0000
vt 0.1413 0.9354 0.0000
vt 0.8577 0.9989 0.0000
vt 0.8587 0.9354 0.0000
vt 0.1343 0.9989 0.0000
vt 0.1333 0.9354 0.0000
vt -0.9976 0.7284 0.0000
vt -0.9976 0.2716 0.0000
vt -0.5000 0.5000 0.0000
vt -0.9769 0.1676 0.0000
vt -0.9180 0.0795 0.0000
vt -0.8299 0.0207 0.0000
vt -0.7260 -0.0000 0.0000
vt -0.2740 -0.0000 0.0000
vt -0.1701 0.0207 0.0000
vt -0.0820 0.0795 0.0000
vt -0.0231 0.1676 0.0000
vt -0.0024 0.2716 0.0000
vt -0.0024 0.7284 0.0000
vt -0.0231 0.8324 0.0000
vt -0.0820 0.9205 0.0000
vt -0.1701 0.9793 0.0000
vt -0.2740 1.0000 0.0000
vt -0.7260 1.0000 0.0000
vt -0.8299 0.9793 0.0000
vt -0.9180 0.9205 0.0000
vt -0.9769 0.8324 0.0000
# 208 texture coords

o A35
g A35
usemtl lou_a2
s off
f 1/1/1 2/2/2 3/3/2 4/4/1 
f 2/2/2 5/5/3 6/6/3 3/3/2 
f 5/7/3 7/8/4 8/9/4 6/10/3 
f 7/8/4 9/11/5 10/12/5 8/9/4 
f 11/13/1 12/14/6 13/15/6 14/16/1 
f 12/14/6 15/10/7 16/7/7 13/15/6 
f 15/6/7 17/17/8 18/18/8 16/5/7 
f 17/17/8 19/19/9 20/20/9 18/18/8 
f 11/13/1 14/16/1 1/1/1 4/4/1 
f 11/21/10 4/22/10 21/23/10 22/24/10 
f 22/25/11 21/26/11 23/27/11 24/28/11 
f 8/29/10 10/30/10 25/31/10 26/32/10 
f 6/33/10 8/29/10 26/32/10 27/34/10 
f 4/22/10 3/35/10 28/36/10 21/23/10 
f 3/35/10 6/37/10 27/38/10 28/36/10 
f 12/39/10 11/21/10 22/24/10 29/40/10 
f 15/33/10 12/39/10 29/40/10 30/34/10 
f 19/41/10 17/42/10 31/43/10 32/44/10 
f 17/42/10 15/37/10 30/38/10 31/43/10 
f 26/45/12 25/46/9 33/47/9 34/48/12 
f 27/33/13 26/45/12 34/48/12 35/49/13 
f 21/26/11 28/50/14 36/51/14 23/27/11 
f 28/50/14 27/37/13 35/52/13 36/51/14 
f 29/53/15 22/25/11 24/28/11 37/54/15 
f 30/33/16 29/53/15 37/54/15 38/49/16 
f 32/55/5 31/56/17 39/57/17 40/58/5 
f 31/56/17 30/37/16 38/52/16 39/57/17 
f 41/59/9 42/60/12 43/61/12 44/62/9 
f 42/60/12 45/10/13 46/7/13 43/61/12 
f 45/6/13 47/63/14 48/64/14 46/5/13 
f 47/63/14 49/65/11 50/66/11 48/64/14 
f 51/67/9 52/68/8 53/69/8 54/70/9 
f 52/68/8 55/37/7 56/52/7 53/69/8 
f 55/33/7 57/71/6 58/72/6 56/49/7 
f 57/71/6 59/73/1 60/74/1 58/72/6 
f 61/75/11 62/76/11 50/66/11 49/65/11 
f 61/77/10 49/78/10 63/79/10 59/80/10 
f 59/73/1 63/81/1 64/82/1 60/74/1 
f 10/12/5 9/11/5 65/83/5 66/84/5 
f 19/19/9 41/59/9 44/62/9 20/20/9 
f 10/30/10 66/85/10 51/86/10 25/31/10 
f 41/87/10 19/41/10 32/44/10 67/88/10 
f 25/46/9 51/67/9 54/70/9 33/47/9 
f 67/89/5 32/55/5 40/58/5 68/90/5 
f 65/83/5 69/91/17 70/92/17 66/84/5 
f 69/91/17 71/5/16 72/6/16 70/92/17 
f 71/7/16 73/93/15 74/94/15 72/10/16 
f 73/93/15 62/76/11 61/75/11 74/94/15 
f 42/95/10 41/87/10 67/88/10 75/96/10 
f 45/33/10 42/95/10 75/96/10 76/34/10 
f 49/78/10 47/97/10 77/98/10 63/79/10 
f 47/97/10 45/37/10 76/38/10 77/98/10 
f 66/85/10 70/99/10 52/100/10 51/86/10 
f 70/99/10 72/37/10 55/38/10 52/100/10 
f 72/33/10 74/101/10 57/102/10 55/34/10 
f 74/101/10 61/77/10 59/80/10 57/102/10 
f 75/103/4 67/89/5 68/90/5 78/104/4 
f 76/33/3 75/103/4 78/104/4 79/49/3 
f 63/81/1 77/105/2 80/106/2 64/82/1 
f 77/105/2 76/37/3 79/52/3 80/106/2 
usemtl louban
f 68/107/10 40/108/10 81/109/10 
f 40/108/10 39/110/10 81/109/10 
f 39/110/10 38/111/10 81/109/10 
f 38/111/10 37/112/10 81/109/10 
f 37/112/10 24/113/10 81/109/10 
f 24/113/10 23/114/10 81/109/10 
f 23/114/10 36/115/10 81/109/10 
f 36/115/10 35/116/10 81/109/10 
f 35/116/10 34/117/10 81/109/10 
f 34/117/10 33/118/10 81/109/10 
f 33/118/10 54/119/10 81/109/10 
f 54/119/10 53/120/10 81/109/10 
f 53/120/10 56/121/10 81/109/10 
f 56/121/10 58/122/10 81/109/10 
f 58/122/10 60/123/10 81/109/10 
f 60/123/10 64/124/10 81/109/10 
f 64/124/10 80/125/10 81/109/10 
f 80/125/10 79/126/10 81/109/10 
f 79/126/10 78/127/10 81/109/10 
f 78/127/10 68/107/10 81/109/10 
usemtl lou_a1
f 82/128/11 83/129/11 84/130/11 85/131/11 
usemtl louban
f 85/132/10 84/133/10 86/134/10 87/135/10 
usemtl lou_a1
f 87/136/1 86/137/1 88/138/1 89/139/1 
f 83/140/9 88/138/9 86/137/9 84/141/9 
f 89/139/5 82/128/5 85/131/5 87/136/5 
f 90/142/5 91/143/17 92/144/17 93/145/5 
f 91/143/17 94/146/16 95/147/16 92/144/17 
f 94/148/16 96/149/15 97/150/15 95/151/16 
f 96/149/15 98/152/11 99/153/11 97/150/15 
f 100/142/11 101/143/14 102/144/14 103/145/11 
f 101/143/14 104/146/13 105/147/13 102/144/14 
f 104/148/13 106/149/12 107/150/12 105/151/13 
f 106/149/12 108/152/9 109/153/9 107/150/12 
f 110/153/5 111/150/4 112/149/4 113/152/5 
f 111/150/4 114/151/3 115/148/3 112/149/4 
f 114/148/3 116/149/2 117/150/2 115/151/3 
f 116/149/2 118/152/1 119/153/1 117/150/2 
f 120/142/1 121/143/6 122/144/6 123/145/1 
f 121/143/6 124/146/7 125/147/7 122/144/6 
f 124/147/7 126/144/8 127/143/8 125/146/7 
f 126/144/8 128/145/9 129/142/9 127/143/8 
f 99/153/11 98/152/11 100/142/11 103/145/11 
f 118/152/1 120/142/1 123/145/1 119/153/1 
f 109/153/9 108/152/9 129/142/9 128/145/9 
f 110/153/5 113/152/5 90/142/5 93/145/5 
f 99/154/10 103/155/10 130/156/10 131/157/10 
f 109/158/10 128/159/10 132/160/10 133/161/10 
f 120/154/10 118/155/10 134/156/10 135/157/10 
f 110/158/10 93/159/10 136/160/10 137/161/10 
f 131/162/1 130/163/1 138/164/1 139/165/1 
f 133/166/5 132/167/5 140/168/5 141/169/5 
f 135/162/11 134/163/11 142/164/11 143/165/11 
f 137/166/9 136/167/9 144/168/9 145/169/9 
f 97/170/10 99/154/10 131/157/10 146/171/10 
f 95/33/10 97/170/10 146/171/10 147/34/10 
f 93/159/10 92/172/10 148/173/10 136/160/10 
f 92/172/10 95/37/10 147/38/10 148/173/10 
f 107/174/10 109/158/10 133/161/10 149/175/10 
f 105/33/10 107/174/10 149/175/10 150/34/10 
f 103/155/10 102/176/10 151/177/10 130/156/10 
f 102/176/10 105/37/10 150/38/10 151/177/10 
f 111/178/10 110/158/10 137/161/10 152/179/10 
f 114/33/10 111/178/10 152/179/10 153/34/10 
f 118/155/10 116/176/10 154/177/10 134/156/10 
f 116/176/10 114/37/10 153/38/10 154/177/10 
f 121/170/10 120/154/10 135/157/10 155/171/10 
f 124/33/10 121/170/10 155/171/10 156/34/10 
f 128/159/10 126/172/10 157/173/10 132/160/10 
f 126/172/10 124/37/10 156/38/10 157/173/10 
f 146/180/6 131/162/1 139/165/1 158/181/6 
f 147/33/7 146/180/6 158/181/6 159/49/7 
f 136/167/9 148/182/8 160/183/8 144/168/9 
f 148/182/8 147/37/7 159/52/7 160/183/8 
f 149/184/4 133/166/5 141/169/5 161/185/4 
f 150/33/3 149/184/4 161/185/4 162/49/3 
f 130/163/1 151/186/2 163/187/2 138/164/1 
f 151/186/2 150/37/3 162/52/3 163/187/2 
f 155/180/15 135/162/11 143/165/11 164/181/15 
f 156/33/16 155/180/15 164/181/15 165/49/16 
f 132/167/5 157/182/17 166/183/17 140/168/5 
f 157/182/17 156/37/16 165/52/16 166/183/17 
f 152/184/12 137/166/9 145/169/9 167/185/12 
f 153/33/13 152/184/12 167/185/12 168/49/13 
f 134/163/11 154/186/14 169/187/14 142/164/11 
f 154/186/14 153/37/13 168/52/13 169/187/14 
usemtl louban
f 145/188/10 144/189/10 170/190/10 
f 144/189/10 160/191/10 170/190/10 
f 160/191/10 159/192/10 170/190/10 
f 159/192/10 158/193/10 170/190/10 
f 158/193/10 139/194/10 170/190/10 
f 139/194/10 138/195/10 170/190/10 
f 138/195/10 163/196/10 170/190/10 
f 163/196/10 162/197/10 170/190/10 
f 162/197/10 161/198/10 170/190/10 
f 161/198/10 141/199/10 170/190/10 
f 141/199/10 140/200/10 170/190/10 
f 140/200/10 166/201/10 170/190/10 
f 166/201/10 165/202/10 170/190/10 
f 165/202/10 164/203/10 170/190/10 
f 164/203/10 143/204/10 170/190/10 
f 143/204/10 142/205/10 170/190/10 
f 142/205/10 169/206/10 170/190/10 
f 169/206/10 168/207/10 170/190/10 
f 168/207/10 167/208/10 170/190/10 
f 167/208/10 145/188/10 170/190/10 
# 125 polygons - 40 triangles

