# 3ds Max Wavefront OBJ Exporter v0.97b - (c)2007 guruware
# 创建的文件:28.03.2019 21:25:47

mtllib A37.mtl

#
# object A37
#

v  -15211.9902 -60.7048 -20120.9414
v  -15211.9893 -60.7056 -15307.8604
v  -15211.9893 11157.7012 -15307.8584
v  -15211.9902 11157.7012 -20120.9395
v  -15175.3643 9925.2695 -20088.5039
v  -15175.3652 9925.2695 -15340.2939
v  -11395.2871 9925.2695 -15340.2939
v  -11395.2861 9925.2695 -20088.5039
v  -11358.6621 11157.7012 -20120.9395
v  -11358.6611 11157.7012 -15307.8584
v  -11358.6611 -60.7056 -15307.8604
v  -11358.6621 -60.7048 -20120.9414
v  -15175.3652 11157.7012 -15340.2939
v  -15175.3643 11157.7012 -20088.5039
v  -11395.2871 11157.7012 -15340.2939
v  -11395.2861 11157.7012 -20088.5039
v  -14032.3740 9081.4014 -18919.2891
v  -14032.3711 9081.4014 -16528.2598
v  -14032.3711 10515.4727 -16528.2598
v  -14032.3740 10515.4727 -18919.2891
v  -12539.4180 10515.4727 -16528.2617
v  -12539.4053 10515.4727 -18919.2910
v  -12539.4180 9081.4014 -16528.2617
v  -12539.4053 9081.4014 -18919.2910
# 24 vertices

vn -1.0000 0.0000 -0.0000
vn 0.0000 1.0000 -0.0000
vn 1.0000 0.0000 -0.0000
vn 0.0000 0.0000 1.0000
vn 0.0000 0.0000 -1.0000
# 5 vertex normals

vt 0.0008 0.0012 0.0000
vt 0.9992 0.0012 0.0000
vt 0.9992 0.9989 0.0000
vt 0.0008 0.9989 0.0000
vt 1.0000 0.0465 0.0000
vt 2.0000 0.0465 0.0000
vt 2.0000 0.9535 0.0000
vt 1.0000 0.9535 0.0000
vt 0.0008 0.9915 0.0000
vt 0.9992 0.9915 0.0000
vt 0.0008 0.9354 0.0000
vt 0.9992 0.9354 0.0000
vt 0.7494 0.8814 0.0000
vt 0.9988 0.8814 0.0000
vt 0.9988 0.9962 0.0000
vt 0.7494 0.9962 0.0000
vt 0.2519 0.2519 0.0000
vt 0.7481 0.2519 0.0000
vt 0.7481 0.7481 0.0000
vt 0.2519 0.7481 0.0000
vt 0.5000 0.9962 0.0000
vt 0.2506 0.9962 0.0000
vt 0.2506 0.8814 0.0000
vt 0.5000 0.8814 0.0000
vt 0.0012 0.8814 0.0000
vt 0.0012 0.9962 0.0000
# 26 texture coords

o A37
g A37
usemtl lou_a4
s off
f 1/1/1 2/2/1 3/3/1 4/4/1 
usemtl louban
f 5/5/2 6/6/2 7/7/2 8/8/2 
usemtl lou_a4
f 9/3/3 10/4/3 11/1/3 12/2/3 
f 2/1/4 11/2/4 10/3/4 3/4/4 
f 12/1/5 1/2/5 4/3/5 9/4/5 
f 4/3/2 3/4/2 13/9/2 14/10/2 
f 3/3/2 10/4/2 15/9/2 13/10/2 
f 10/3/2 9/4/2 16/9/2 15/10/2 
f 9/3/2 4/4/2 14/9/2 16/10/2 
f 14/3/3 13/4/3 6/11/3 5/12/3 
f 13/3/5 15/4/5 7/11/5 6/12/5 
f 15/3/1 16/4/1 8/11/1 7/12/1 
f 16/3/4 14/4/4 5/11/4 8/12/4 
f 17/13/1 18/14/1 19/15/1 20/16/1 
usemtl louban
f 20/17/2 19/18/2 21/19/2 22/20/2 
usemtl lou_a4
f 22/21/3 21/22/3 23/23/3 24/24/3 
f 18/25/4 23/23/4 21/22/4 19/26/4 
f 24/24/5 17/13/5 20/16/5 22/21/5 
# 18 polygons

