# 3ds Max Wavefront OBJ Exporter v0.97b - (c)2007 guruware
# 创建的文件:28.03.2019 21:24:36

mtllib A39.mtl

#
# object A39
#

v  35766.8828 -140.4104 23855.1582
v  40193.1133 -140.4104 23855.1582
v  40193.1133 2725.9341 23855.1582
v  35766.8828 2725.9341 23855.1582
v  35799.3164 2485.7104 23813.3164
v  40160.6758 2485.7104 23813.3164
v  40160.6758 2485.7112 18863.7520
v  35799.3164 2485.7112 18863.7520
v  35766.8828 2725.9348 18821.9121
v  40193.1133 2725.9348 18821.9121
v  40193.1133 -140.4096 18821.9121
v  35766.8828 -140.4096 18821.9121
v  40160.6758 2725.9341 23813.3164
v  35799.3164 2725.9341 23813.3164
v  40160.6758 2725.9348 18863.7520
v  35799.3164 2725.9348 18863.7520
# 16 vertices

vn 0.0000 0.0000 1.0000
vn 0.0000 1.0000 -0.0000
vn 0.0000 0.0000 -1.0000
vn 1.0000 0.0000 -0.0000
vn -1.0000 0.0000 -0.0000
# 5 vertex normals

vt 0.0008 0.0012 0.0000
vt 0.9992 0.0012 0.0000
vt 0.9992 0.9989 0.0000
vt 0.0008 0.9989 0.0000
vt 1.0000 0.0465 0.0000
vt 2.0000 0.0465 0.0000
vt 2.0000 0.9535 0.0000
vt 1.0000 0.9535 0.0000
vt 0.0008 0.9915 0.0000
vt 0.9992 0.9915 0.0000
vt 0.0008 0.9354 0.0000
vt 0.9992 0.9354 0.0000
# 12 texture coords

o A39
g A39
usemtl lou_a2
s off
f 1/1/1 2/2/1 3/3/1 4/4/1 
usemtl louban
f 5/5/2 6/6/2 7/7/2 8/8/2 
usemtl lou_a2
f 9/3/3 10/4/3 11/1/3 12/2/3 
f 2/1/4 11/2/4 10/3/4 3/4/4 
f 12/1/5 1/2/5 4/3/5 9/4/5 
f 4/3/2 3/4/2 13/9/2 14/10/2 
f 3/3/2 10/4/2 15/9/2 13/10/2 
f 10/3/2 9/4/2 16/9/2 15/10/2 
f 9/3/2 4/4/2 14/9/2 16/10/2 
f 14/3/3 13/4/3 6/11/3 5/12/3 
f 13/3/5 15/4/5 7/11/5 6/12/5 
f 15/3/1 16/4/1 8/11/1 7/12/1 
f 16/3/4 14/4/4 5/11/4 8/12/4 
# 13 polygons

