# 3ds Max Wavefront OBJ Exporter v0.97b - (c)2007 guruware
# 创建的文件:28.03.2019 21:34:40

mtllib A5.mtl

#
# object A5
#

v  -33720.6016 -94.4044 11037.6025
v  -33720.6016 10373.5293 11037.6045
v  -37856.3477 10373.5293 11037.6045
v  -37856.3477 -94.4044 11037.6025
v  -33754.7227 9906.8672 10999.5869
v  -33754.7227 9906.8682 7359.2974
v  -37822.2266 9906.8682 7359.2974
v  -37822.2266 9906.8672 10999.5869
v  -33720.6016 10373.5303 7321.2788
v  -33720.6016 -94.4037 7321.2773
v  -37856.3477 -94.4037 7321.2773
v  -37856.3477 10373.5303 7321.2788
v  -33754.7227 10373.5293 10999.5869
v  -37822.2266 10373.5293 10999.5869
v  -37822.2266 10373.5303 7359.2974
v  -33754.7227 10373.5303 7359.2974
v  -34550.4063 9718.8359 9802.3232
v  -34550.4063 10465.5459 9802.3232
v  -37013.7773 10465.5459 9802.3232
v  -37013.7773 9718.8359 9802.3232
v  -34550.4063 10465.5469 8582.5420
v  -37013.7773 10465.5469 8582.5420
v  -34550.4063 9718.8369 8582.5420
v  -37013.7773 9718.8369 8582.5420
# 24 vertices

vn 0.0000 0.0000 1.0000
vn 0.0000 1.0000 -0.0000
vn 0.0000 0.0000 -1.0000
vn -1.0000 0.0000 -0.0000
vn 1.0000 0.0000 -0.0000
# 5 vertex normals

vt 0.0008 0.0012 0.0000
vt 0.0008 0.9989 0.0000
vt 0.9992 0.9989 0.0000
vt 0.9992 0.0012 0.0000
vt 1.0000 0.0465 0.0000
vt 1.0000 0.9535 0.0000
vt 2.0000 0.9535 0.0000
vt 2.0000 0.0465 0.0000
vt 0.9992 0.9915 0.0000
vt 0.0008 0.9915 0.0000
vt 0.9992 0.9354 0.0000
vt 0.0008 0.9354 0.0000
vt 1.1251 0.8814 0.0000
vt 1.1251 0.9962 0.0000
vt 2.1260 0.9962 0.0000
vt 2.1260 0.8814 0.0000
vt 0.2519 0.2519 0.0000
vt 0.2519 0.7481 0.0000
vt 0.7481 0.7481 0.0000
vt 0.7481 0.2519 0.0000
vt 0.1243 0.9962 0.0000
vt 0.1243 0.8814 0.0000
vt -0.8766 0.8814 0.0000
vt -0.8766 0.9962 0.0000
vt 0.0012 0.8814 0.0000
vt 0.0012 0.9962 0.0000
# 26 texture coords

o A5
g A5
usemtl lou_a3
s off
f 1/1/1 2/2/1 3/3/1 4/4/1 
usemtl louban
f 5/5/2 6/6/2 7/7/2 8/8/2 
usemtl lou_a3
f 9/3/3 10/4/3 11/1/3 12/2/3 
f 4/1/4 3/2/4 12/3/4 11/4/4 
f 10/1/5 9/2/5 2/3/5 1/4/5 
f 2/3/2 13/9/2 14/10/2 3/2/2 
f 3/3/2 14/9/2 15/10/2 12/2/2 
f 12/3/2 15/9/2 16/10/2 9/2/2 
f 9/3/2 16/9/2 13/10/2 2/2/2 
f 13/3/3 5/11/3 8/12/3 14/2/3 
f 14/3/5 8/11/5 7/12/5 15/2/5 
f 15/3/1 7/11/1 6/12/1 16/2/1 
f 16/3/4 6/11/4 5/12/4 13/2/4 
f 17/13/1 18/14/1 19/15/1 20/16/1 
usemtl louban
f 18/17/2 21/18/2 22/19/2 19/20/2 
usemtl lou_a3
f 21/21/3 23/22/3 24/23/3 22/24/3 
f 20/25/4 19/26/4 22/24/4 24/23/4 
f 23/22/5 21/21/5 18/14/5 17/13/5 
# 18 polygons

