# 3ds Max Wavefront OBJ Exporter v0.97b - (c)2007 guruware
# 创建的文件:28.03.2019 21:30:50

mtllib A20.mtl

#
# object A20
#

v  -10100.0313 -23.4680 11850.6387
v  -6150.0156 -23.4680 11850.6387
v  -6150.0156 15760.1650 11850.6416
v  -10100.0313 15760.1650 11850.6416
v  -10045.7969 14583.2910 11812.5313
v  -6204.2656 14583.2910 11812.5313
v  -6204.2656 14583.2920 8163.5171
v  -10045.7969 14583.2920 8163.5171
v  -10100.0313 15760.1660 8125.4077
v  -6150.0156 15760.1660 8125.4077
v  -6150.0156 -23.4674 8125.4053
v  -10100.0313 -23.4674 8125.4053
v  -6204.2656 15760.1650 11812.5322
v  -10045.7969 15760.1650 11812.5322
v  -6204.2656 15760.1660 8163.5171
v  -10045.7969 15760.1660 8163.5171
v  -9188.7188 14659.6787 10679.6738
v  -7187.9141 14659.6787 10679.6738
v  -7187.9141 15749.9668 10679.6748
v  -9188.7188 15749.9668 10679.6748
v  -7187.9141 15749.9668 9576.1143
v  -9188.7188 15749.9668 9576.1143
v  -7187.9141 14659.6787 9576.1133
v  -9188.7188 14659.6787 9576.1133
v  -14514.9531 -23.4680 11839.7490
v  -10086.1406 -23.4680 11839.7490
v  -10086.1406 3198.2871 11839.7500
v  -14514.9531 3198.2871 11839.7500
v  -14460.7031 2945.0083 11801.6396
v  -10140.3906 2945.0083 11801.6396
v  -10140.3906 2945.0088 9088.1201
v  -14460.7031 2945.0088 9088.1201
v  -14514.9531 3198.2876 9050.0117
v  -10086.1406 3198.2876 9050.0117
v  -10086.1406 -23.4675 9050.0107
v  -14514.9531 -23.4675 9050.0107
v  -10140.3906 3198.2871 11801.6406
v  -14460.7031 3198.2871 11801.6406
v  -10140.3906 3198.2876 9088.1211
v  -14460.7031 3198.2876 9088.1211
# 40 vertices

vn 0.0000 0.0000 1.0000
vn 0.0000 1.0000 -0.0000
vn 0.0000 0.0000 -1.0000
vn 1.0000 0.0000 -0.0000
vn -1.0000 0.0000 -0.0000
# 5 vertex normals

vt 0.0000 0.0000 0.0000
vt 1.0000 0.0000 0.0000
vt 1.0000 1.0000 0.0000
vt 0.0000 1.0000 0.0000
vt 0.0000 0.1722 0.0000
vt 1.0000 0.1722 0.0000
vt 1.0000 0.8278 0.0000
vt 0.0000 0.8278 0.0000
vt 0.0008 0.0012 0.0000
vt 0.9992 0.0012 0.0000
vt 0.9992 0.9989 0.0000
vt 0.0008 0.9989 0.0000
vt 0.0008 0.9915 0.0000
vt 0.9992 0.9915 0.0000
vt 0.0008 0.9354 0.0000
vt 0.9992 0.9354 0.0000
vt 0.7494 0.8814 0.0000
vt 0.9988 0.8814 0.0000
vt 0.9988 0.9962 0.0000
vt 0.7494 0.9962 0.0000
vt 0.3552 0.3757 0.0000
vt 0.8145 0.3757 0.0000
vt 0.8145 0.6365 0.0000
vt 0.3552 0.6365 0.0000
vt 0.5000 0.9962 0.0000
vt 0.2506 0.9962 0.0000
vt 0.2506 0.8814 0.0000
vt 0.5000 0.8814 0.0000
vt 0.0012 0.8814 0.0000
vt 0.0012 0.9962 0.0000
vt 0.0529 0.0139 0.0000
vt 1.0588 0.0139 0.0000
vt 1.0588 1.0251 0.0000
vt 0.0529 1.0251 0.0000
vt -0.0000 0.2171 0.0000
vt 1.0000 0.2171 0.0000
vt 1.0000 0.7829 0.0000
vt -0.0000 0.7829 0.0000
# 38 texture coords

o A20
g A20
usemtl lou_a2
s off
f 1/1/1 2/2/1 3/3/1 4/4/1 
usemtl louban
f 5/5/2 6/6/2 7/7/2 8/8/2 
usemtl lou_a2
f 9/4/3 10/3/3 11/2/3 12/1/3 
f 2/9/4 11/10/4 10/11/4 3/12/4 
f 12/9/5 1/10/5 4/11/5 9/12/5 
f 4/11/2 3/12/2 13/13/2 14/14/2 
f 3/11/2 10/12/2 15/13/2 13/14/2 
f 10/11/2 9/12/2 16/13/2 15/14/2 
f 9/11/2 4/12/2 14/13/2 16/14/2 
f 14/11/3 13/12/3 6/15/3 5/16/3 
f 13/11/5 15/12/5 7/15/5 6/16/5 
f 15/11/1 16/12/1 8/15/1 7/16/1 
f 16/11/4 14/12/4 5/15/4 8/16/4 
usemtl lou_a4
f 17/17/1 18/18/1 19/19/1 20/20/1 
usemtl louban
f 20/21/2 19/22/2 21/23/2 22/24/2 
usemtl lou_a4
f 22/25/3 21/26/3 23/27/3 24/28/3 
f 18/29/4 23/27/4 21/26/4 19/30/4 
f 24/28/5 17/17/5 20/20/5 22/25/5 
usemtl lou_a2
f 25/31/1 26/32/1 27/33/1 28/34/1 
usemtl louban
f 29/35/2 30/36/2 31/37/2 32/38/2 
usemtl lou_a2
f 33/34/3 34/33/3 35/32/3 36/31/3 
f 26/9/4 35/10/4 34/11/4 27/12/4 
f 36/9/5 25/10/5 28/11/5 33/12/5 
f 28/11/2 27/12/2 37/13/2 38/14/2 
f 27/11/2 34/12/2 39/13/2 37/14/2 
f 34/11/2 33/12/2 40/13/2 39/14/2 
f 33/11/2 28/12/2 38/13/2 40/14/2 
f 38/11/3 37/12/3 30/15/3 29/16/3 
f 37/11/5 39/12/5 31/15/5 30/16/5 
f 39/11/1 40/12/1 32/15/1 31/16/1 
f 40/11/4 38/12/4 29/15/4 32/16/4 
# 31 polygons

