# 3ds Max Wavefront OBJ Exporter v0.97b - (c)2007 guruware
# 创建的文件:28.03.2019 21:30:07

mtllib A23.mtl

#
# object A23
#

v  -8384.8418 449.2496 -14952.4346
v  -3580.7935 449.2496 -14952.4346
v  -3580.7935 10204.3691 -14952.4326
v  -8384.8418 10204.3691 -14952.4326
v  -8330.2861 9053.1992 -14992.5869
v  -3635.3423 9053.1992 -14992.5869
v  -3635.3423 9053.1992 -18837.4707
v  -8330.2861 9053.1992 -18837.4707
v  -8384.8418 10204.3701 -18877.6270
v  -3580.7935 10204.3701 -18877.6270
v  -3580.7935 449.2503 -18877.6289
v  -8384.8418 449.2503 -18877.6289
v  -3635.3423 10204.3701 -14992.5869
v  -8330.2861 10204.3701 -14992.5869
v  -3635.3423 10204.3701 -18837.4707
v  -8330.2861 10204.3701 -18837.4707
v  -7153.7798 8711.2422 -16189.5313
v  -4761.1216 8711.2422 -16189.5313
v  -4761.1216 9801.5313 -16189.5303
v  -7153.7798 9801.5313 -16189.5303
v  -4761.1216 9801.5313 -17685.3301
v  -7153.7798 9801.5313 -17685.3301
v  -4761.1216 8711.2422 -17685.3301
v  -7153.7798 8711.2422 -17685.3301
# 24 vertices

vn 0.0000 0.0000 1.0000
vn 0.0000 1.0000 -0.0000
vn 0.0000 0.0000 -1.0000
vn 1.0000 0.0000 -0.0000
vn -1.0000 0.0000 -0.0000
# 5 vertex normals

vt 0.0008 0.0012 0.0000
vt 0.9992 0.0012 0.0000
vt 0.9992 0.9989 0.0000
vt 0.0008 0.9989 0.0000
vt 1.0000 0.0465 0.0000
vt 2.0000 0.0465 0.0000
vt 2.0000 0.9535 0.0000
vt 1.0000 0.9535 0.0000
vt 0.0008 0.9915 0.0000
vt 0.9992 0.9915 0.0000
vt 0.0008 0.9354 0.0000
vt 0.9992 0.9354 0.0000
vt 0.7494 0.8814 0.0000
vt 0.9988 0.8814 0.0000
vt 0.9988 0.9962 0.0000
vt 0.7494 0.9962 0.0000
vt 0.2519 0.2519 0.0000
vt 0.7481 0.2519 0.0000
vt 0.7481 0.7481 0.0000
vt 0.2519 0.7481 0.0000
vt 0.5000 0.9962 0.0000
vt 0.2506 0.9962 0.0000
vt 0.2506 0.8814 0.0000
vt 0.5000 0.8814 0.0000
vt 0.0012 0.8814 0.0000
vt 0.0012 0.9962 0.0000
# 26 texture coords

o A23
g A23
usemtl lou_a3
s off
f 1/1/1 2/2/1 3/3/1 4/4/1 
usemtl louban
f 5/5/2 6/6/2 7/7/2 8/8/2 
usemtl lou_a3
f 9/3/3 10/4/3 11/1/3 12/2/3 
f 2/1/4 11/2/4 10/3/4 3/4/4 
f 12/1/5 1/2/5 4/3/5 9/4/5 
f 4/3/2 3/4/2 13/9/2 14/10/2 
f 3/3/2 10/4/2 15/9/2 13/10/2 
f 10/3/2 9/4/2 16/9/2 15/10/2 
f 9/3/2 4/4/2 14/9/2 16/10/2 
f 14/3/3 13/4/3 6/11/3 5/12/3 
f 13/3/5 15/4/5 7/11/5 6/12/5 
f 15/3/1 16/4/1 8/11/1 7/12/1 
f 16/3/4 14/4/4 5/11/4 8/12/4 
usemtl lou_a2
f 17/13/1 18/14/1 19/15/1 20/16/1 
usemtl louban
f 20/17/2 19/18/2 21/19/2 22/20/2 
usemtl lou_a2
f 22/21/3 21/22/3 23/23/3 24/24/3 
f 18/25/4 23/23/4 21/22/4 19/26/4 
f 24/24/5 17/13/5 20/16/5 22/21/5 
# 18 polygons

