# 3ds Max Wavefront OBJ Exporter v0.97b - (c)2007 guruware
# 创建的文件:28.03.2019 21:27:04

mtllib A32.mtl

#
# object A32
#

v  35429.9453 -391.6864 1853.9646
v  40243.0352 -391.6864 1853.9646
v  40243.0352 11373.3320 1853.9666
v  35429.9453 11373.3320 1853.9666
v  35462.3867 10275.1475 1817.3427
v  40210.5938 10275.1475 1817.3427
v  40210.5938 10275.1475 -1962.7347
v  35462.3867 10275.1475 -1962.7347
v  35429.9453 11373.3320 -1999.3589
v  40243.0352 11373.3320 -1999.3589
v  40243.0352 -391.6857 -1999.3608
v  35429.9453 -391.6857 -1999.3608
v  40210.5938 11373.3320 1817.3428
v  35462.3867 11373.3320 1817.3428
v  40210.5938 11373.3320 -1962.7346
v  35462.3867 11373.3320 -1962.7346
v  36691.9844 10120.2295 647.4130
v  38997.1289 10120.2295 647.4130
v  38997.1289 11367.9375 647.4131
v  36691.9844 11367.9375 647.4131
v  38997.1289 11367.9375 -765.3807
v  36691.9844 11367.9375 -765.3807
v  38997.1289 10120.2295 -765.3809
v  36691.9844 10120.2295 -765.3809
# 24 vertices

vn 0.0000 0.0000 1.0000
vn 0.0000 1.0000 -0.0000
vn 0.0000 0.0000 -1.0000
vn 1.0000 0.0000 -0.0000
vn -1.0000 0.0000 -0.0000
# 5 vertex normals

vt 0.0008 0.0012 0.0000
vt 0.9992 0.0012 0.0000
vt 0.9992 0.9989 0.0000
vt 0.0008 0.9989 0.0000
vt 1.0000 0.0465 0.0000
vt 2.0000 0.0465 0.0000
vt 2.0000 0.9535 0.0000
vt 1.0000 0.9535 0.0000
vt 0.0008 0.9915 0.0000
vt 0.9992 0.9915 0.0000
vt 0.0008 0.9354 0.0000
vt 0.9992 0.9354 0.0000
vt 0.7494 0.8814 0.0000
vt 0.9988 0.8814 0.0000
vt 0.9988 0.9962 0.0000
vt 0.7494 0.9962 0.0000
vt 0.2519 0.2519 0.0000
vt 0.7481 0.2519 0.0000
vt 0.7481 0.7481 0.0000
vt 0.2519 0.7481 0.0000
vt 0.5000 0.9962 0.0000
vt 0.2506 0.9962 0.0000
vt 0.2506 0.8814 0.0000
vt 0.5000 0.8814 0.0000
vt 0.0012 0.8814 0.0000
vt 0.0012 0.9962 0.0000
# 26 texture coords

o A32
g A32
usemtl lou_a4
s off
f 1/1/1 2/2/1 3/3/1 4/4/1 
usemtl louban
f 5/5/2 6/6/2 7/7/2 8/8/2 
usemtl lou_a4
f 9/3/3 10/4/3 11/1/3 12/2/3 
f 2/1/4 11/2/4 10/3/4 3/4/4 
f 12/1/5 1/2/5 4/3/5 9/4/5 
f 4/3/2 3/4/2 13/9/2 14/10/2 
f 3/3/2 10/4/2 15/9/2 13/10/2 
f 10/3/2 9/4/2 16/9/2 15/10/2 
f 9/3/2 4/4/2 14/9/2 16/10/2 
f 14/3/3 13/4/3 6/11/3 5/12/3 
f 13/3/5 15/4/5 7/11/5 6/12/5 
f 15/3/1 16/4/1 8/11/1 7/12/1 
f 16/3/4 14/4/4 5/11/4 8/12/4 
f 17/13/1 18/14/1 19/15/1 20/16/1 
usemtl louban
f 20/17/2 19/18/2 21/19/2 22/20/2 
usemtl lou_a4
f 22/21/3 21/22/3 23/23/3 24/24/3 
f 18/25/4 23/23/4 21/22/4 19/26/4 
f 24/24/5 17/13/5 20/16/5 22/21/5 
# 18 polygons

