# 3ds Max Wavefront OBJ Exporter v0.97b - (c)2007 guruware
# 创建的文件:28.03.2019 21:34:32

mtllib A6.mtl

#
# object A6
#

v  -28775.2441 9239.8457 9021.1260
v  -26805.5684 9239.8457 9021.1260
v  -26805.5684 9953.1660 9021.1260
v  -28775.2441 9953.1660 9021.1260
v  -26805.5684 9953.1670 7900.6299
v  -28775.2441 9953.1670 7900.6299
v  -26805.5684 9239.8467 7900.6299
v  -28775.2441 9239.8467 7900.6299
v  -30690.5156 -134.5777 10139.7451
v  -25426.0469 -134.5777 10139.7451
v  -25426.0469 9865.2646 10139.7471
v  -30690.5156 9865.2646 10139.7471
v  -30657.3125 9419.4697 10102.2490
v  -25459.2500 9419.4697 10102.2490
v  -25459.2500 9419.4707 7539.2905
v  -30657.3125 9419.4707 7539.2905
v  -30690.5156 9865.2656 7501.7915
v  -25426.0469 9865.2656 7501.7915
v  -25426.0469 -134.5772 7501.7900
v  -30690.5156 -134.5772 7501.7900
v  -25459.2500 9865.2646 10102.2490
v  -30657.3125 9865.2646 10102.2490
v  -25459.2500 9865.2656 7539.2905
v  -30657.3125 9865.2656 7539.2905
# 24 vertices

vn 0.0000 0.0000 1.0000
vn 0.0000 1.0000 -0.0000
vn 0.0000 0.0000 -1.0000
vn 1.0000 0.0000 -0.0000
vn -1.0000 0.0000 -0.0000
# 5 vertex normals

vt 0.7494 0.8814 0.0000
vt 0.9988 0.8814 0.0000
vt 0.9988 0.9962 0.0000
vt 0.7494 0.9962 0.0000
vt 0.2519 0.2519 0.0000
vt 0.7481 0.2519 0.0000
vt 0.7481 0.7481 0.0000
vt 0.2519 0.7481 0.0000
vt 0.5000 0.9962 0.0000
vt 0.2506 0.9962 0.0000
vt 0.2506 0.8814 0.0000
vt 0.5000 0.8814 0.0000
vt 0.0012 0.8814 0.0000
vt 0.0012 0.9962 0.0000
vt 0.0008 0.0012 0.0000
vt 0.9992 0.0012 0.0000
vt 0.9992 0.9989 0.0000
vt 0.0008 0.9989 0.0000
vt 1.0000 0.0465 0.0000
vt 2.0000 0.0465 0.0000
vt 2.0000 0.9535 0.0000
vt 1.0000 0.9535 0.0000
vt 0.0008 0.9915 0.0000
vt 0.9992 0.9915 0.0000
vt 0.0008 0.9354 0.0000
vt 0.9992 0.9354 0.0000
# 26 texture coords

o A6
g A6
usemtl lou_a1
s off
f 1/1/1 2/2/1 3/3/1 4/4/1 
usemtl louban
f 4/5/2 3/6/2 5/7/2 6/8/2 
usemtl lou_a1
f 6/9/3 5/10/3 7/11/3 8/12/3 
f 2/13/4 7/11/4 5/10/4 3/14/4 
f 8/12/5 1/1/5 4/4/5 6/9/5 
f 9/15/1 10/16/1 11/17/1 12/18/1 
usemtl louban
f 13/19/2 14/20/2 15/21/2 16/22/2 
usemtl lou_a1
f 17/17/3 18/18/3 19/15/3 20/16/3 
f 10/15/4 19/16/4 18/17/4 11/18/4 
f 20/15/5 9/16/5 12/17/5 17/18/5 
f 12/17/2 11/18/2 21/23/2 22/24/2 
f 11/17/2 18/18/2 23/23/2 21/24/2 
f 18/17/2 17/18/2 24/23/2 23/24/2 
f 17/17/2 12/18/2 22/23/2 24/24/2 
f 22/17/3 21/18/3 14/25/3 13/26/3 
f 21/17/5 23/18/5 15/25/5 14/26/5 
f 23/17/1 24/18/1 16/25/1 15/26/1 
f 24/17/4 22/18/4 13/25/4 16/26/4 
# 18 polygons

