# 3ds Max Wavefront OBJ Exporter v0.97b - (c)2007 guruware
# 创建的文件:28.03.2019 21:23:07

mtllib B4.mtl

#
# object B4
#

v  76793.5625 418.6396 -7153.1528
v  84142.0625 418.6395 -6196.7725
v  84142.0625 1045.7181 -6196.7725
v  76793.5625 1045.7184 -7153.1528
v  76838.1953 1018.2456 -7202.0537
v  84097.4219 1018.2455 -6245.6729
v  84648.4922 1018.2460 -9656.2090
v  76838.1953 1018.2460 -9656.2090
v  76793.5625 1045.7188 -9705.1104
v  84693.1250 1045.7188 -9705.1104
v  84693.1250 418.6401 -9705.1104
v  76793.5625 418.6401 -9705.1104
v  84097.4219 1045.7181 -6245.6729
v  76838.1953 1045.7184 -7202.0537
v  84648.4922 1045.7188 -9656.2090
v  76838.1953 1045.7188 -9656.2090
v  77431.2344 638.4856 -7892.6953
v  83769.3594 638.4854 -6700.2578
v  83769.3594 1742.5535 -6700.2573
v  77431.2344 1742.5537 -7892.6948
v  84062.0469 1742.5538 -9260.3584
v  77431.2344 1742.5538 -9260.3584
v  84062.0469 638.4858 -9260.3584
v  77431.2344 638.4858 -9260.3584
v  82107.2734 -1.3311 -12951.9316
v  82107.2734 1908.0422 -12951.9316
v  78832.3125 1908.0422 -12951.9316
v  78832.3125 -1.3311 -12951.9316
v  82062.6406 1200.8474 -13000.8320
v  82062.6406 1200.8479 -15907.4160
v  78205.8594 1200.8479 -15907.4160
v  78876.9531 1200.8474 -13000.8320
v  82107.2734 1908.0427 -15956.3164
v  82107.2734 -1.3306 -15956.3164
v  78161.2188 -1.3306 -15956.3164
v  78161.2188 1908.0427 -15956.3164
v  82062.6406 1908.0422 -13000.8320
v  78876.9531 1908.0422 -13000.8320
v  78205.8594 1908.0427 -15907.4160
v  82062.6406 1908.0427 -15907.4160
v  84053.2109 -1.3310 -13452.5684
v  84053.2109 16256.5234 -13452.5654
v  79801.2500 16256.5234 -13452.5654
v  79801.2500 -1.3310 -13452.5684
v  84006.9297 15549.3281 -13501.4658
v  84006.9297 15549.3291 -18183.8066
v  79847.5391 15549.3291 -18183.8066
v  79847.5391 15549.3281 -13501.4658
v  84053.2109 16256.5244 -18232.7090
v  84053.2109 -1.3302 -18232.7109
v  79801.2500 -1.3302 -18232.7109
v  79801.2500 16256.5244 -18232.7090
v  84006.9297 16256.5234 -13501.4658
v  79847.5391 16256.5234 -13501.4658
v  79847.5391 16256.5244 -18183.8066
v  84006.9297 16256.5244 -18183.8066
v  83940.7656 15507.4756 -13650.3213
v  83940.7656 18138.8535 -13650.3213
v  81281.6094 17620.8770 -13650.3213
v  81281.6094 15507.4756 -13650.3213
v  83940.7656 18138.8535 -17828.5859
v  81281.6094 17620.8770 -17828.5879
v  83940.7656 15507.4766 -17828.5879
v  81281.6094 15507.4766 -17828.5879
v  92681.0938 -1.3320 -7464.3589
v  92681.0938 15791.1973 -7464.3564
v  88365.8750 15791.1973 -7464.3564
v  88365.8750 -1.3320 -7464.3589
v  92636.4609 15084.0020 -7513.2573
v  92636.4609 15084.0029 -12195.5977
v  88410.5156 15084.0029 -12195.5977
v  88410.5156 15084.0020 -7513.2573
v  92681.0938 15791.1982 -12244.4990
v  92681.0938 -1.3312 -12244.5020
v  88365.8750 -1.3312 -12244.5020
v  88365.8750 15791.1982 -12244.4990
v  92636.4609 15791.1973 -7513.2573
v  88410.5156 15791.1973 -7513.2573
v  88410.5156 15791.1982 -12195.5977
v  92636.4609 15791.1982 -12195.5977
v  91447.4219 14439.3389 -9415.0430
v  91447.4219 15529.6270 -9415.0420
v  89673.4375 15529.6270 -9415.0420
v  89673.4375 14439.3389 -9415.0430
v  91447.4219 15529.6270 -10409.7861
v  89673.4375 15529.6270 -10409.7861
v  91447.4219 14439.3389 -10409.7871
v  89673.4375 14439.3389 -10409.7871
v  96705.7891 -1.3319 -8139.4282
v  96705.7891 1266.2520 -8139.4282
v  91353.0469 1266.2520 -8139.4282
v  91353.0469 -1.3319 -8139.4282
v  96661.1563 1200.8467 -8188.3296
v  96661.1563 1200.8480 -16773.3574
v  91397.6875 1200.8480 -16773.3574
v  91397.6875 1200.8467 -8188.3296
v  96705.7891 1266.2533 -16822.2578
v  96705.7891 -1.3305 -16822.2578
v  91353.0469 -1.3305 -16822.2578
v  91353.0469 1266.2533 -16822.2578
v  96661.1563 1266.2520 -8188.3296
v  91397.6875 1266.2520 -8188.3296
v  91397.6875 1266.2533 -16773.3574
v  96661.1563 1266.2533 -16773.3574
v  95766.8281 878.0280 -12230.9219
v  95766.8281 1810.6420 -12230.9219
v  91741.4922 1810.6420 -12230.9219
v  91741.4922 878.0280 -12230.9219
v  95766.8281 1810.6427 -16369.8438
v  91741.4922 1810.6427 -16369.8438
v  95766.8281 878.0287 -16369.8438
v  91741.4922 878.0287 -16369.8438
v  91377.7734 -1.3306 -15915.0449
v  91377.7734 1252.3135 -15915.0449
v  78164.0156 1252.3135 -15915.0449
v  78164.0156 -1.3306 -15915.0449
v  91333.1406 1200.8479 -15932.7988
v  91333.1406 1200.8484 -19049.6250
v  78208.6563 1200.8484 -19049.6250
v  78208.6563 1200.8479 -15932.7988
v  91377.7734 1252.3140 -19067.3789
v  91377.7734 -1.3301 -19067.3789
v  78164.0156 -1.3301 -19067.3789
v  78164.0156 1252.3140 -19067.3789
v  91333.1406 1252.3135 -15932.7988
v  78208.6563 1252.3135 -15932.7988
v  78208.6563 1252.3140 -19049.6250
v  91333.1406 1252.3140 -19049.6250
v  87462.7422 878.0287 -16377.2832
v  87462.7422 1810.6427 -16377.2832
v  84063.5078 1810.6427 -16377.2832
v  84063.5078 878.0287 -16377.2832
v  87462.7422 1810.6429 -18235.0215
v  84063.5078 1810.6429 -18235.0215
v  87462.7422 878.0290 -18235.0215
v  84063.5078 878.0290 -18235.0215
# 136 vertices

vn 0.0000 0.0000 1.0000
vn 0.0000 1.0000 -0.0000
vn 0.0000 0.0000 -1.0000
vn 0.9829 0.0000 0.1843
vn 0.9701 0.0000 0.2425
vn -1.0000 0.0000 -0.0000
vn -0.9829 0.0000 -0.1843
vn -0.9701 0.0000 -0.2425
vn 1.0000 0.0000 -0.0000
vn 0.9923 0.0000 0.1240
vn -0.9701 0.0000 0.2425
vn 0.9701 0.0000 -0.2425
# 12 vertex normals

vt 0.0008 0.0012 0.0000
vt 0.9992 0.0012 0.0000
vt 0.9992 0.9989 0.0000
vt 0.0008 0.9989 0.0000
vt 1.0000 0.0465 0.0000
vt 2.0000 0.0465 0.0000
vt 2.0000 0.9535 0.0000
vt 1.0000 0.9535 0.0000
vt 0.0008 0.9915 0.0000
vt 0.9992 0.9915 0.0000
vt 0.0008 0.9354 0.0000
vt 0.9992 0.9354 0.0000
vt 0.7494 0.8814 0.0000
vt 0.9988 0.8814 0.0000
vt 0.9988 0.9962 0.0000
vt 0.7494 0.9962 0.0000
vt 0.2519 0.2519 0.0000
vt 0.7481 0.2519 0.0000
vt 0.7481 0.7481 0.0000
vt 0.2519 0.7481 0.0000
vt 0.5000 0.9962 0.0000
vt 0.2506 0.9962 0.0000
vt 0.2506 0.8814 0.0000
vt 0.5000 0.8814 0.0000
vt 0.0012 0.8814 0.0000
vt 0.0012 0.9962 0.0000
# 26 texture coords

o B4
g B4
usemtl lou_a3
s off
f 1/1/1 2/2/1 3/3/1 4/4/1 
usemtl louban
f 5/5/2 6/6/2 7/7/2 8/8/2 
usemtl lou_a3
f 9/3/3 10/4/3 11/1/3 12/2/3 
f 2/1/4 11/2/5 10/3/5 3/4/4 
f 12/1/6 1/2/6 4/3/6 9/4/6 
f 4/3/2 3/4/2 13/9/2 14/10/2 
f 3/3/2 10/4/2 15/9/2 13/10/2 
f 10/3/2 9/4/2 16/9/2 15/10/2 
f 9/3/2 4/4/2 14/9/2 16/10/2 
f 14/3/3 13/4/3 6/11/3 5/12/3 
f 13/3/7 15/4/8 7/11/8 6/12/7 
f 15/3/1 16/4/1 8/11/1 7/12/1 
f 16/3/9 14/4/9 5/11/9 8/12/9 
usemtl lou_a4
f 17/13/1 18/14/1 19/15/1 20/16/1 
usemtl louban
f 20/17/2 19/18/2 21/19/2 22/20/2 
usemtl lou_a4
f 22/21/3 21/22/3 23/23/3 24/24/3 
f 18/25/10 23/23/10 21/22/10 19/26/10 
f 24/24/6 17/13/6 20/16/6 22/21/6 
usemtl lou_a3
f 25/1/1 26/4/1 27/3/1 28/2/1 
usemtl louban
f 29/5/2 30/8/2 31/7/2 32/6/2 
usemtl lou_a3
f 33/3/3 34/2/3 35/1/3 36/4/3 
f 28/1/11 27/4/11 36/3/11 35/2/11 
f 34/1/9 33/4/9 26/3/9 25/2/9 
f 26/3/2 37/10/2 38/9/2 27/4/2 
f 27/3/2 38/10/2 39/9/2 36/4/2 
f 36/3/2 39/10/2 40/9/2 33/4/2 
f 33/3/2 40/10/2 37/9/2 26/4/2 
f 37/3/3 29/12/3 32/11/3 38/4/3 
f 38/3/12 32/12/12 31/11/12 39/4/12 
f 39/3/1 31/12/1 30/11/1 40/4/1 
f 40/3/6 30/12/6 29/11/6 37/4/6 
usemtl lou_a1
f 41/1/1 42/4/1 43/3/1 44/2/1 
usemtl louban
f 45/5/2 46/8/2 47/7/2 48/6/2 
usemtl lou_a1
f 49/3/3 50/2/3 51/1/3 52/4/3 
f 44/1/6 43/4/6 52/3/6 51/2/6 
f 50/1/9 49/4/9 42/3/9 41/2/9 
f 42/3/2 53/10/2 54/9/2 43/4/2 
f 43/3/2 54/10/2 55/9/2 52/4/2 
f 52/3/2 55/10/2 56/9/2 49/4/2 
f 49/3/2 56/10/2 53/9/2 42/4/2 
f 53/3/3 45/12/3 48/11/3 54/4/3 
f 54/3/9 48/12/9 47/11/9 55/4/9 
f 55/3/1 47/12/1 46/11/1 56/4/1 
f 56/3/6 46/12/6 45/11/6 53/4/6 
f 57/13/1 58/16/1 59/15/1 60/14/1 
usemtl louban
f 58/17/2 61/20/2 62/19/2 59/18/2 
usemtl lou_a1
f 61/21/3 63/24/3 64/23/3 62/22/3 
f 60/25/6 59/26/6 62/22/6 64/23/6 
f 63/24/9 61/21/9 58/16/9 57/13/9 
usemtl lou_a3
f 65/1/1 66/4/1 67/3/1 68/2/1 
usemtl louban
f 69/5/2 70/8/2 71/7/2 72/6/2 
usemtl lou_a3
f 73/3/3 74/2/3 75/1/3 76/4/3 
f 68/1/6 67/4/6 76/3/6 75/2/6 
f 74/1/9 73/4/9 66/3/9 65/2/9 
f 66/3/2 77/10/2 78/9/2 67/4/2 
f 67/3/2 78/10/2 79/9/2 76/4/2 
f 76/3/2 79/10/2 80/9/2 73/4/2 
f 73/3/2 80/10/2 77/9/2 66/4/2 
f 77/3/3 69/12/3 72/11/3 78/4/3 
f 78/3/9 72/12/9 71/11/9 79/4/9 
f 79/3/1 71/12/1 70/11/1 80/4/1 
f 80/3/6 70/12/6 69/11/6 77/4/6 
usemtl lou_a4
f 81/13/1 82/16/1 83/15/1 84/14/1 
usemtl louban
f 82/17/2 85/20/2 86/19/2 83/18/2 
usemtl lou_a4
f 85/21/3 87/24/3 88/23/3 86/22/3 
f 84/25/6 83/26/6 86/22/6 88/23/6 
f 87/24/9 85/21/9 82/16/9 81/13/9 
usemtl lou_a3
f 89/1/1 90/4/1 91/3/1 92/2/1 
usemtl louban
f 93/5/2 94/8/2 95/7/2 96/6/2 
usemtl lou_a3
f 97/3/3 98/2/3 99/1/3 100/4/3 
f 92/1/6 91/4/6 100/3/6 99/2/6 
f 98/1/9 97/4/9 90/3/9 89/2/9 
f 90/3/2 101/10/2 102/9/2 91/4/2 
f 91/3/2 102/10/2 103/9/2 100/4/2 
f 100/3/2 103/10/2 104/9/2 97/4/2 
f 97/3/2 104/10/2 101/9/2 90/4/2 
f 101/3/3 93/12/3 96/11/3 102/4/3 
f 102/3/9 96/12/9 95/11/9 103/4/9 
f 103/3/1 95/12/1 94/11/1 104/4/1 
f 104/3/6 94/12/6 93/11/6 101/4/6 
usemtl lou_a4
f 105/13/1 106/16/1 107/15/1 108/14/1 
usemtl louban
f 106/17/2 109/20/2 110/19/2 107/18/2 
usemtl lou_a4
f 109/21/3 111/24/3 112/23/3 110/22/3 
f 108/25/6 107/26/6 110/22/6 112/23/6 
f 111/24/9 109/21/9 106/16/9 105/13/9 
usemtl lou_a3
f 113/1/1 114/4/1 115/3/1 116/2/1 
usemtl louban
f 117/5/2 118/8/2 119/7/2 120/6/2 
usemtl lou_a3
f 121/3/3 122/2/3 123/1/3 124/4/3 
f 116/1/6 115/4/6 124/3/6 123/2/6 
f 122/1/9 121/4/9 114/3/9 113/2/9 
f 114/3/2 125/10/2 126/9/2 115/4/2 
f 115/3/2 126/10/2 127/9/2 124/4/2 
f 124/3/2 127/10/2 128/9/2 121/4/2 
f 121/3/2 128/10/2 125/9/2 114/4/2 
f 125/3/3 117/12/3 120/11/3 126/4/3 
f 126/3/9 120/12/9 119/11/9 127/4/9 
f 127/3/1 119/12/1 118/11/1 128/4/1 
f 128/3/6 118/12/6 117/11/6 125/4/6 
usemtl lou_a4
f 129/13/1 130/16/1 131/15/1 132/14/1 
usemtl louban
f 130/17/2 133/20/2 134/19/2 131/18/2 
usemtl lou_a4
f 133/21/3 135/24/3 136/23/3 134/22/3 
f 132/25/6 131/26/6 134/22/6 136/23/6 
f 135/24/9 133/21/9 130/16/9 129/13/9 
# 103 polygons

