<?xml version="1.0" encoding="UTF-8"?>
<svg width="120px" height="120px" viewBox="0 0 120 120" version="1.1" xmlns="http://www.w3.org/2000/svg" xmlns:xlink="http://www.w3.org/1999/xlink">
    <!-- Generator: Sketch 52.6 (67491) - http://www.bohemiancoding.com/sketch -->
    <title>yuanjiaologo</title>
    <desc>Created with Sketch.</desc>
    <defs>
        <linearGradient x1="96.9108445%" y1="3.59186006%" x2="3.9249071%" y2="96.1245139%" id="linearGradient-1">
            <stop stop-color="#535353" offset="0%"></stop>
            <stop stop-color="#262626" offset="100%"></stop>
        </linearGradient>
        <rect id="path-2" x="0" y="0" width="120" height="120" rx="27"></rect>
        <path d="M18.9894253,8.19807692 C15.2836782,16.3575281 2.61977011,39.797772 0.0551724138,45.0907598 C1.1154023,46.1197233 2.17011494,47.1185038 3.1954023,48.0697233 C4.53057471,49.3017355 5.75724138,50.392894 6.82206897,51.3194184 C10.1471264,50.8035647 13.3636782,49.4535647 16.1462069,47.2739916 C16.4018391,47.0663696 16.6537931,46.857833 16.9057471,46.6492964 C17.3554023,46.2770403 17.805977,45.9038696 18.2464368,45.5325281 L19.4372414,44.4797842 C19.4372414,44.4797842 20.285977,43.5422842 21.4032184,42.2288696 C23.0786207,40.2633208 25.3581609,37.4526501 26.3089655,35.6764306 C26.3825287,35.5364916 26.4533333,35.3947233 26.5268966,35.2547842 C26.5296552,35.2520403 26.5314943,35.2465525 26.5333333,35.2438086 C26.5728736,35.1633208 26.616092,35.0837477 26.6547126,35.0050891 C26.8,34.7169794 26.9333333,34.4261257 27.0657471,34.1380159 C27.0804598,34.1069184 27.096092,34.0749062 27.1108046,34.0438086 C27.1871264,33.8782598 27.2616092,33.7072233 27.3342529,33.5398452 C27.3737931,33.4492964 27.4096552,33.3560038 27.4455172,33.265455 C29.0758621,29.3563086 29.6064368,25.417894 29.3195402,21.5242964 C29.314023,21.4721623 29.3112644,21.4181989 29.3057471,21.3660647 C29.223908,20.3334428 29.085977,19.3044794 28.8947126,18.2791745 C28.7613793,17.5730769 28.6050575,16.8697233 28.4257471,16.1691135 C28.3356322,15.8188086 28.2390805,15.4694184 28.137931,15.1200281 C27.9356322,14.4221623 27.7112644,13.727955 27.4657471,13.0355769 C27.2202299,12.3431989 26.9554023,11.6544794 26.6703448,10.970333 C26.5268966,10.6282598 26.3816092,10.2871013 26.2289655,9.94685741 C24.7154023,6.54167448 22.7521839,3.23801595 20.5554023,0.0898452158 C20.7429885,1.47825985 20.3264368,5.25569887 18.9894253,8.19807692" id="path-4"></path>
        <linearGradient x1="88.681525%" y1="11.6937916%" x2="16.3156587%" y2="96.0162118%" id="linearGradient-6">
            <stop stop-color="#BA6D2C" offset="0%"></stop>
            <stop stop-color="#F0D649" offset="100%"></stop>
        </linearGradient>
        <path d="M7.48965517,65.1777439 C7.48965517,65.1777439 12.7770115,59.3387195 14.3613793,56.3753049 C14.4349425,56.2353659 14.5066667,56.0945122 14.5802299,55.9545732 C14.582069,55.9509146 14.583908,55.9463415 14.5866667,55.9426829 C14.6252874,55.8631098 14.6685057,55.782622 14.708046,55.7039634 C14.8533333,55.4158537 14.9866667,55.125 15.1190805,54.8368902 C15.1337931,54.8057927 15.1494253,54.7728659 15.1632184,54.7417683 C15.2395402,54.5771341 15.3149425,54.4060976 15.3866667,54.2387195 C15.4262069,54.1481707 15.462069,54.054878 15.4988506,53.9643293 C17.1291954,50.0551829 17.6597701,46.1167683 17.3728736,42.2240854 C17.3682759,42.1710366 17.3645977,42.1179878 17.3590805,42.064939 C17.2772414,41.0323171 17.1393103,40.0033537 16.948046,38.9780488 C16.8147126,38.2719512 16.6583908,37.5685976 16.4790805,36.8679878 C16.388046,36.5176829 16.2924138,36.1682927 16.1912644,35.8198171 C15.9889655,35.1210366 15.7636782,34.4259146 15.5190805,33.7344512 C15.2735632,33.0420732 15.0078161,32.3542683 14.7236782,31.6692073 C14.5802299,31.3271341 14.434023,30.9859756 14.2822989,30.6457317 C12.7687356,27.2414634 10.8055172,23.9368902 8.60781609,20.7887195 C8.60321839,20.7804878 8.59678161,20.7740854 8.59126437,20.764939 C8.37701149,18.1179878 7.96597701,14.2070122 5.93931034,9.05487805 C5.6662069,8.36067073 5.37655172,7.70304878 5.07034483,7.07743902 C4.42298851,5.75396341 3.71126437,4.58414634 2.97195402,3.54420732 C2.83954023,3.35762195 2.7062069,3.17012195 2.57195402,2.99085366 C1.73425287,1.87682927 0.868045977,0.927439024 0.0248275862,0.108841463 C0.0248275862,0.108841463 3.6937931,2.63506098 4.8662069,3.54420732 C10.5471264,7.9472561 18.7071264,14.7365854 25.9328736,23.0917683 C26.9526437,24.272561 27.9512644,25.4176829 28.6896552,26.7128049 C31.6625287,31.9280488 32.0413793,38.597561 28.7218391,43.5978659" id="path-7"></path>
        <linearGradient x1="11.9947043%" y1="3.85321974%" x2="76.608983%" y2="73.808798%" id="linearGradient-9">
            <stop stop-color="#BA6D2C" offset="0%"></stop>
            <stop stop-color="#EFD44F" offset="100%"></stop>
        </linearGradient>
        <path d="M3.5519717,0.525914634 C6.76499198,0.538967343 9.97490723,1.31293419 12.8891954,2.85091463 L12.8910345,2.8527439 C13.1190805,3.0722561 13.3452874,3.30365854 13.5742529,3.54329268 C14.1967816,4.19542683 14.8248276,4.92073171 15.4381609,5.7347561 C15.5724138,5.91402439 15.7057471,6.10152439 15.8390805,6.28810976 C16.3926437,7.06829268 16.9314943,7.92164634 17.44,8.85731707 C17.6082759,9.16920732 17.7747126,9.49115854 17.9365517,9.82134146 C18.2427586,10.4460366 18.5324138,11.1045732 18.8055172,11.7987805 C19.1852874,12.7655488 19.5089655,13.6875 19.7848276,14.5664634 C20.9793103,18.3740854 21.2827586,21.357622 21.4574713,23.5088415 C21.4464368,23.4914634 21.4335632,23.4731707 21.4234483,23.457622 C20.856092,22.6481707 20.2786207,21.8442073 19.6827586,21.0539634 C16.2409195,16.4789634 12.3337931,12.1984756 8.70804598,8.56646341 C7.91724138,7.77439024 7.14206897,7.01432927 6.38528736,6.28810976 L6.37609195,6.28810976 C5.53747126,5.48506098 4.79448276,4.78079268 4.11218391,4.14512195 C2.72367816,2.86006098 1.44827586,1.72408537 0.346666667,0.767378049 L0.351264368,0.766463415 C0.351264368,0.766463415 0.354942529,0.76554878 0.36045977,0.764634146 C0.36045977,0.764634146 0.363218391,0.764634146 0.365977011,0.763719512 C1.36660927,0.609318369 2.3765193,0.530017976 3.3866184,0.525914634 L3.5519717,0.525914634" id="path-10"></path>
        <linearGradient x1="14.7045689%" y1="0%" x2="100%" y2="92.3731568%" id="linearGradient-12">
            <stop stop-color="#C58332" offset="0%"></stop>
            <stop stop-color="#F9E756" offset="100%"></stop>
        </linearGradient>
        <path d="M30.0928736,6.99237805 C27.5291954,12.2835366 14.8643678,35.7246951 11.1577011,43.8841463 C9.82252874,46.827439 9.40413793,50.604878 9.59356322,51.9914634 C7.39586207,48.8442073 5.43356322,45.5414634 3.91816092,42.1362805 C3.76735632,41.7960366 3.61931034,41.454878 3.47770115,41.1128049 C3.19356322,40.4277439 2.92781609,39.7390244 2.68229885,39.047561 C2.43678161,38.3560976 2.21241379,37.6609756 2.01011494,36.9631098 C1.90804598,36.6137195 1.81333333,36.2634146 1.72321839,35.9131098 C1.54298851,35.2125 1.38574713,34.5091463 1.25425287,33.8039634 C1.06206897,32.7795732 0.924137931,31.7496951 0.842298851,30.7170732 C0.837701149,30.6640244 0.832183908,30.6109756 0.828505747,30.5579268 C0.541609195,26.6652439 1.07126437,22.7268293 2.7016092,18.8167683 C2.73931034,18.7271341 2.77517241,18.6338415 2.81287356,18.5432927 C2.88735632,18.3759146 2.96275862,18.204878 3.03816092,18.0393293 C3.05195402,18.0073171 3.06850575,17.9762195 3.08229885,17.945122 C3.2137931,17.6560976 3.34896552,17.3661585 3.49333333,17.0771341 C3.53195402,16.9993902 3.57517241,16.9179878 3.61471264,16.8393293 C3.61655172,16.8356707 3.61747126,16.8320122 3.61931034,16.827439 C3.6937931,16.6875 3.76735632,16.5466463 3.84091954,16.4057927 C4.78988506,14.6295732 7.06942529,11.8198171 8.74390805,9.85335366 C9.86298851,8.54085366 10.7117241,7.60335366 10.7117241,7.60335366 L11.9025287,6.54969512 C12.3429885,6.18018293 12.7917241,5.80609756 13.2422989,5.43292683 C13.4942529,5.22530488 13.7471264,5.01676829 14.0018391,4.80823171 C16.7843678,2.62957317 20.0027586,1.27957317 23.3250575,0.763719512 C24.3908046,1.68932927 25.6165517,2.78140244 26.9517241,4.01341463" id="path-13"></path>
        <linearGradient x1="50%" y1="0%" x2="50%" y2="100%" id="linearGradient-15">
            <stop stop-color="#FFFFFF" offset="0%"></stop>
            <stop stop-color="#000000" offset="100%"></stop>
        </linearGradient>
        <path d="M30.0928736,6.99237805 C27.5291954,12.2835366 14.8643678,35.7246951 11.1577011,43.8841463 C9.82252874,46.827439 9.40413793,50.604878 9.59356322,51.9914634 C7.39586207,48.8442073 5.43356322,45.5414634 3.91816092,42.1362805 C3.76735632,41.7960366 3.61931034,41.454878 3.47770115,41.1128049 C3.19356322,40.4277439 2.92781609,39.7390244 2.68229885,39.047561 C2.43678161,38.3560976 2.21241379,37.6609756 2.01011494,36.9631098 C1.90804598,36.6137195 1.81333333,36.2634146 1.72321839,35.9131098 C1.54298851,35.2125 1.38574713,34.5091463 1.25425287,33.8039634 C1.06206897,32.7795732 0.924137931,31.7496951 0.842298851,30.7170732 C0.837701149,30.6640244 0.832183908,30.6109756 0.828505747,30.5579268 C0.541609195,26.6652439 1.07126437,22.7268293 2.7016092,18.8167683 C2.73931034,18.7271341 2.77517241,18.6338415 2.81287356,18.5432927 C2.88735632,18.3759146 2.96275862,18.204878 3.03816092,18.0393293 C3.05195402,18.0073171 3.06850575,17.9762195 3.08229885,17.945122 C3.2137931,17.6560976 3.34896552,17.3661585 3.49333333,17.0771341 C3.53195402,16.9993902 3.57517241,16.9179878 3.61471264,16.8393293 C3.61655172,16.8356707 3.61747126,16.8320122 3.61931034,16.827439 C3.6937931,16.6875 3.76735632,16.5466463 3.84091954,16.4057927 C4.78988506,14.6295732 7.06942529,11.8198171 8.74390805,9.85335366 C9.86298851,8.54085366 10.7117241,7.60335366 10.7117241,7.60335366 L11.9025287,6.54969512 C12.3429885,6.18018293 12.7917241,5.80609756 13.2422989,5.43292683 C13.4942529,5.22530488 13.7471264,5.01676829 14.0018391,4.80823171 C16.7843678,2.62957317 20.0027586,1.27957317 23.3250575,0.763719512 C24.3908046,1.68932927 25.6165517,2.78140244 26.9517241,4.01341463" id="path-16"></path>
        <linearGradient x1="93.3562783%" y1="4.97780953%" x2="25.3005499%" y2="94.2753891%" id="linearGradient-18">
            <stop stop-color="#F2DA51" offset="0%"></stop>
            <stop stop-color="#BA6D2C" offset="100%"></stop>
        </linearGradient>
        <path d="M-1.64437825e-10,29.8776418 C0.0108231878,27.0531976 0.752107748,24.26763 2.34666667,21.8661585 C6.52781609,15.5661585 9.39402299,12.7445122 23.577931,0.286280488 C23.577931,0.286280488 18.2905747,6.12621951 16.7071264,9.08871951 C16.6335632,9.22957317 16.5609195,9.37042683 16.4873563,9.51036585 C16.4855172,9.51493902 16.4836782,9.51859756 16.4809195,9.5222561 C16.4422989,9.60091463 16.3990805,9.68231707 16.3604598,9.76006098 C16.2151724,10.0490854 16.0809195,10.3390244 15.9494253,10.6280488 C15.9347126,10.6591463 15.9181609,10.6902439 15.9043678,10.7222561 C15.8289655,10.8878049 15.7535632,11.0588415 15.6809195,11.2262195 C15.6422989,11.3167683 15.6055172,11.410061 15.5687356,11.4996951 C13.9383908,15.4097561 13.4078161,19.3481707 13.6947126,23.2408537 C13.6993103,23.2939024 13.703908,23.3469512 13.7075862,23.4 C13.7903448,24.432622 13.9282759,25.4625 14.1204598,26.4868902 C14.2528736,27.1920732 14.4101149,27.8954268 14.5894253,28.5960366 C14.6804598,28.9463415 14.7751724,29.2966463 14.8772414,29.6460366 C15.0795402,30.3439024 15.303908,31.0390244 15.5485057,31.7304878 C15.7949425,32.4219512 16.0606897,33.1106707 16.343908,33.7957317 C16.4873563,34.1378049 16.6335632,34.4789634 16.7852874,34.8192073 C18.2997701,38.2243902 20.2611494,41.5271341 22.4597701,44.6743902 C22.4652874,44.6835366 22.4708046,44.6908537 22.4772414,44.7 C22.6914943,47.3460366 23.1016092,51.2579268 25.1282759,56.410061 C25.4013793,57.1033537 25.691954,57.7618902 25.9972414,58.3875 C26.6445977,59.7109756 27.3563218,60.8789634 28.0956322,61.9207317 C28.228046,62.1073171 28.3613793,62.2939024 28.4956322,62.4722561 C29.3342529,63.5871951 30.2004598,64.5365854 31.0427586,65.3560976 C31.0427586,65.3560976 27.3737931,62.829878 26.2022989,61.9207317 C20.5204598,57.5167683 12.3604598,50.7283537 5.13471264,42.3722561 C4.11402299,41.1932927 3.11724138,40.0472561 2.37885057,38.7521341 C0.854386993,36.0778027 0.0115508111,33.0213047 -8.34412318e-11,30.0033195 L-1.32306296e-11,29.8776418" id="path-19"></path>
        <linearGradient x1="50%" y1="11.0143381%" x2="77.4234787%" y2="91.0474048%" id="linearGradient-21">
            <stop stop-color="#F4DD52" offset="0%"></stop>
            <stop stop-color="#BA6D2C" offset="100%"></stop>
        </linearGradient>
        <path d="M2.08735632,9.74085366 C2.36229885,10.6189024 2.68597701,11.5408537 3.06666667,12.5067073 C3.33977011,13.2009146 3.63126437,13.8594512 3.93563218,14.4841463 C4.09747126,14.8152439 4.26298851,15.1371951 4.43402299,15.4481707 C4.93977011,16.3847561 5.47954023,17.2381098 6.03310345,18.0182927 C6.16643678,18.204878 6.29885057,18.392378 6.43402299,18.5707317 C7.04735632,19.3856707 7.6754023,20.1109756 8.29885057,20.7631098 C8.52597701,21.0018293 8.75494253,21.2332317 8.98022989,21.4536585 L8.98390805,21.4554878 C12.8634483,23.5033537 17.2698851,24.1957317 21.5062069,23.5426829 C21.5089655,23.5417683 21.5135632,23.5417683 21.5135632,23.5417683 C21.5181609,23.5408537 21.5218391,23.539939 21.5218391,23.539939 L21.5255172,23.5390244 C20.4229885,22.5823171 19.1494253,21.4463415 17.7590805,20.1612805 C17.0795402,19.5237805 16.3347126,18.8204268 15.4970115,18.0182927 L15.4878161,18.0182927 C14.7310345,17.2911585 13.9558621,16.5320122 13.165977,15.739939 C9.53931034,12.1079268 5.63126437,7.82652439 2.19034483,3.25243902 C1.59448276,2.46219512 1.01609195,1.65823171 0.448735632,0.848780488 C0.436781609,0.833231707 0.424827586,0.81402439 0.413793103,0.797560976 C0.587586207,2.94878049 0.892873563,5.93231707 2.08735632,9.74085366" id="path-22"></path>
        <linearGradient x1="0%" y1="0%" x2="86.2247482%" y2="100%" id="linearGradient-24">
            <stop stop-color="#F5E053" offset="0%"></stop>
            <stop stop-color="#BA6D2C" offset="100%"></stop>
        </linearGradient>
        <filter x="-1200.0%" y="-1200.0%" width="2500.0%" height="2500.0%" filterUnits="objectBoundingBox" id="filter-25">
            <feOffset dx="0" dy="0" in="SourceAlpha" result="shadowOffsetOuter1"></feOffset>
            <feGaussianBlur stdDeviation="3" in="shadowOffsetOuter1" result="shadowBlurOuter1"></feGaussianBlur>
            <feColorMatrix values="0 0 0 0 0   0 0 0 0 0   0 0 0 0 0  0 0 0 0.25891644 0" type="matrix" in="shadowBlurOuter1" result="shadowMatrixOuter1"></feColorMatrix>
            <feMerge>
                <feMergeNode in="shadowMatrixOuter1"></feMergeNode>
                <feMergeNode in="SourceGraphic"></feMergeNode>
            </feMerge>
        </filter>
    </defs>
    <g id="Page-1" stroke="none" stroke-width="1" fill="none" fill-rule="evenodd">
        <g id="icon-logo120-copy">
            <g id="yuanjiaologo">
                <g id="4c82489ec5976abc76ba0e16d481d712cb9dc79d212c8-FtKfpw_fw658">
                    <mask id="mask-3" fill="white">
                        <use xlink:href="#path-2"></use>
                    </mask>
                    <use id="Mask" fill="url(#linearGradient-1)" fill-rule="nonzero" xlink:href="#path-2"></use>
                    <g id="分组-9" mask="url(#mask-3)">
                        <g transform="translate(20.000000, 23.000000)" id="分组">
                            <g transform="translate(36.781609, 23.442777)">
                                <mask id="mask-5" fill="white">
                                    <use xlink:href="#path-4"></use>
                                </mask>
                                <g id="Clip-54"></g>
                                <path d="M18.9894253,8.19807692 C15.2836782,16.3575281 2.61977011,39.797772 0.0551724138,45.0907598 C1.1154023,46.1197233 2.17011494,47.1185038 3.1954023,48.0697233 C4.53057471,49.3017355 5.75724138,50.392894 6.82206897,51.3194184 C10.1471264,50.8035647 13.3636782,49.4535647 16.1462069,47.2739916 C16.4018391,47.0663696 16.6537931,46.857833 16.9057471,46.6492964 C17.3554023,46.2770403 17.805977,45.9038696 18.2464368,45.5325281 L19.4372414,44.4797842 C19.4372414,44.4797842 20.285977,43.5422842 21.4032184,42.2288696 C23.0786207,40.2633208 25.3581609,37.4526501 26.3089655,35.6764306 C26.3825287,35.5364916 26.4533333,35.3947233 26.5268966,35.2547842 C26.5296552,35.2520403 26.5314943,35.2465525 26.5333333,35.2438086 C26.5728736,35.1633208 26.616092,35.0837477 26.6547126,35.0050891 C26.8,34.7169794 26.9333333,34.4261257 27.0657471,34.1380159 C27.0804598,34.1069184 27.096092,34.0749062 27.1108046,34.0438086 C27.1871264,33.8782598 27.2616092,33.7072233 27.3342529,33.5398452 C27.3737931,33.4492964 27.4096552,33.3560038 27.4455172,33.265455 C29.0758621,29.3563086 29.6064368,25.417894 29.3195402,21.5242964 C29.314023,21.4721623 29.3112644,21.4181989 29.3057471,21.3660647 C29.223908,20.3334428 29.085977,19.3044794 28.8947126,18.2791745 C28.7613793,17.5730769 28.6050575,16.8697233 28.4257471,16.1691135 C28.3356322,15.8188086 28.2390805,15.4694184 28.137931,15.1200281 C27.9356322,14.4221623 27.7112644,13.727955 27.4657471,13.0355769 C27.2202299,12.3431989 26.9554023,11.6544794 26.6703448,10.970333 C26.5268966,10.6282598 26.3816092,10.2871013 26.2289655,9.94685741 C24.7154023,6.54167448 22.7521839,3.23801595 20.5554023,0.0898452158 C20.7429885,1.47825985 20.3264368,5.25569887 18.9894253,8.19807692" id="Fill-53" fill="url(#linearGradient-6)" mask="url(#mask-5)"></path>
                            </g>
                            <g>
                                <g transform="translate(48.735632, 2.743902)">
                                    <mask id="mask-8" fill="white">
                                        <use xlink:href="#path-7"></use>
                                    </mask>
                                    <g id="Clip-56"></g>
                                    <path d="M7.48965517,65.1777439 C7.48965517,65.1777439 12.7770115,59.3387195 14.3613793,56.3753049 C14.4349425,56.2353659 14.5066667,56.0945122 14.5802299,55.9545732 C14.582069,55.9509146 14.583908,55.9463415 14.5866667,55.9426829 C14.6252874,55.8631098 14.6685057,55.782622 14.708046,55.7039634 C14.8533333,55.4158537 14.9866667,55.125 15.1190805,54.8368902 C15.1337931,54.8057927 15.1494253,54.7728659 15.1632184,54.7417683 C15.2395402,54.5771341 15.3149425,54.4060976 15.3866667,54.2387195 C15.4262069,54.1481707 15.462069,54.054878 15.4988506,53.9643293 C17.1291954,50.0551829 17.6597701,46.1167683 17.3728736,42.2240854 C17.3682759,42.1710366 17.3645977,42.1179878 17.3590805,42.064939 C17.2772414,41.0323171 17.1393103,40.0033537 16.948046,38.9780488 C16.8147126,38.2719512 16.6583908,37.5685976 16.4790805,36.8679878 C16.388046,36.5176829 16.2924138,36.1682927 16.1912644,35.8198171 C15.9889655,35.1210366 15.7636782,34.4259146 15.5190805,33.7344512 C15.2735632,33.0420732 15.0078161,32.3542683 14.7236782,31.6692073 C14.5802299,31.3271341 14.434023,30.9859756 14.2822989,30.6457317 C12.7687356,27.2414634 10.8055172,23.9368902 8.60781609,20.7887195 C8.60321839,20.7804878 8.59678161,20.7740854 8.59126437,20.764939 C8.37701149,18.1179878 7.96597701,14.2070122 5.93931034,9.05487805 C5.6662069,8.36067073 5.37655172,7.70304878 5.07034483,7.07743902 C4.42298851,5.75396341 3.71126437,4.58414634 2.97195402,3.54420732 C2.83954023,3.35762195 2.7062069,3.17012195 2.57195402,2.99085366 C1.73425287,1.87682927 0.868045977,0.927439024 0.0248275862,0.108841463 C0.0248275862,0.108841463 3.6937931,2.63506098 4.8662069,3.54420732 C10.5471264,7.9472561 18.7071264,14.7365854 25.9328736,23.0917683 C26.9526437,24.272561 27.9512644,25.4176829 28.6896552,26.7128049 C31.6625287,31.9280488 32.0413793,38.597561 28.7218391,43.5978659 C24.5406897,49.8978659 21.6744828,52.7195122 7.48965517,65.1777439" id="Fill-55" fill="url(#linearGradient-9)" mask="url(#mask-8)"></path>
                                </g>
                                <g transform="translate(35.862069, 0.000000)">
                                    <mask id="mask-11" fill="white">
                                        <use xlink:href="#path-10"></use>
                                    </mask>
                                    <g id="Clip-58"></g>
                                    <path d="M19.7848276,14.5664634 C19.5089655,13.6875 19.1852874,12.7655488 18.8055172,11.7987805 C18.5324138,11.1045732 18.2427586,10.4460366 17.9365517,9.82134146 C17.7747126,9.49115854 17.6082759,9.16920732 17.44,8.85731707 C16.9314943,7.92164634 16.3926437,7.06829268 15.8390805,6.28810976 C15.7057471,6.10152439 15.5724138,5.91402439 15.4381609,5.7347561 C14.8248276,4.92073171 14.1967816,4.19542683 13.5742529,3.54329268 C13.3452874,3.30365854 13.1190805,3.0722561 12.8910345,2.8527439 L12.8891954,2.85091463 C9.00873563,0.80304878 4.60413793,0.109756098 0.365977011,0.763719512 C0.363218391,0.764634146 0.36045977,0.764634146 0.36045977,0.764634146 C0.354942529,0.76554878 0.351264368,0.766463415 0.351264368,0.766463415 L0.346666667,0.767378049 C1.44827586,1.72408537 2.72367816,2.86006098 4.11218391,4.14512195 C4.79448276,4.78079268 5.53747126,5.48506098 6.37609195,6.28810976 L6.38528736,6.28810976 C7.14206897,7.01432927 7.91724138,7.77439024 8.70804598,8.56646341 C12.3337931,12.1984756 16.2409195,16.4789634 19.6827586,21.0539634 C20.2786207,21.8442073 20.856092,22.6481707 21.4234483,23.457622 C21.4335632,23.4731707 21.4464368,23.4914634 21.4574713,23.5088415 C21.2827586,21.357622 20.9793103,18.3740854 19.7848276,14.5664634" id="Fill-57" fill="url(#linearGradient-12)" mask="url(#mask-11)"></path>
                                </g>
                                <g transform="translate(12.873563, 0.000000)">
                                    <mask id="mask-14" fill="white">
                                        <use xlink:href="#path-13"></use>
                                    </mask>
                                    <g id="Clip-60"></g>
                                    <path d="M30.0928736,6.99237805 C29.0326437,5.96158537 27.977931,4.96280488 26.9517241,4.01341463 C25.6165517,2.78140244 24.3908046,1.68932927 23.3250575,0.763719512 C20.0027586,1.27957317 16.7843678,2.62957317 14.0018391,4.80823171 C13.7471264,5.01676829 13.4942529,5.22530488 13.2422989,5.43292683 C12.7917241,5.80609756 12.3429885,6.18018293 11.9025287,6.54969512 L10.7117241,7.60335366 C10.7117241,7.60335366 9.86298851,8.54085366 8.74390805,9.85335366 C7.06942529,11.8198171 4.78988506,14.6295732 3.84091954,16.4057927 C3.76735632,16.5466463 3.6937931,16.6875 3.61931034,16.827439 C3.61747126,16.8320122 3.61655172,16.8356707 3.61471264,16.8393293 C3.57517241,16.9179878 3.53195402,16.9993902 3.49333333,17.0771341 C3.34896552,17.3661585 3.2137931,17.6560976 3.08229885,17.945122 C3.06850575,17.9762195 3.05195402,18.0073171 3.03816092,18.0393293 C2.96275862,18.204878 2.88735632,18.3759146 2.81287356,18.5432927 C2.77517241,18.6338415 2.73931034,18.7271341 2.7016092,18.8167683 C1.07126437,22.7268293 0.541609195,26.6652439 0.828505747,30.5579268 C0.832183908,30.6109756 0.837701149,30.6640244 0.842298851,30.7170732 C0.924137931,31.7496951 1.06206897,32.7795732 1.25425287,33.8039634 C1.38574713,34.5091463 1.54298851,35.2125 1.72321839,35.9131098 C1.81333333,36.2634146 1.90804598,36.6137195 2.01011494,36.9631098 C2.21241379,37.6609756 2.43678161,38.3560976 2.68229885,39.047561 C2.92781609,39.7390244 3.19356322,40.4277439 3.47770115,41.1128049 C3.61931034,41.454878 3.76735632,41.7960366 3.91816092,42.1362805 C5.43356322,45.5414634 7.39586207,48.8442073 9.59356322,51.9914634 C9.40413793,50.604878 9.82252874,46.827439 11.1577011,43.8841463 C14.8643678,35.7246951 27.5291954,12.2835366 30.0928736,6.99237805" id="Fill-59" fill="url(#linearGradient-15)" mask="url(#mask-14)"></path>
                                </g>
                                <g transform="translate(12.873563, 0.000000)">
                                    <mask id="mask-17" fill="white">
                                        <use xlink:href="#path-16"></use>
                                    </mask>
                                    <g id="Clip-62"></g>
                                    <path d="M30.0928736,6.99237805 C29.0326437,5.96158537 27.977931,4.96280488 26.9517241,4.01341463 C25.6165517,2.78140244 24.3908046,1.68932927 23.3250575,0.763719512 C20.0027586,1.27957317 16.7843678,2.62957317 14.0018391,4.80823171 C13.7471264,5.01676829 13.4942529,5.22530488 13.2422989,5.43292683 C12.7917241,5.80609756 12.3429885,6.18018293 11.9025287,6.54969512 L10.7117241,7.60335366 C10.7117241,7.60335366 9.86298851,8.54085366 8.74390805,9.85335366 C7.06942529,11.8198171 4.78988506,14.6295732 3.84091954,16.4057927 C3.76735632,16.5466463 3.6937931,16.6875 3.61931034,16.827439 C3.61747126,16.8320122 3.61655172,16.8356707 3.61471264,16.8393293 C3.57517241,16.9179878 3.53195402,16.9993902 3.49333333,17.0771341 C3.34896552,17.3661585 3.2137931,17.6560976 3.08229885,17.945122 C3.06850575,17.9762195 3.05195402,18.0073171 3.03816092,18.0393293 C2.96275862,18.204878 2.88735632,18.3759146 2.81287356,18.5432927 C2.77517241,18.6338415 2.73931034,18.7271341 2.7016092,18.8167683 C1.07126437,22.7268293 0.541609195,26.6652439 0.828505747,30.5579268 C0.832183908,30.6109756 0.837701149,30.6640244 0.842298851,30.7170732 C0.924137931,31.7496951 1.06206897,32.7795732 1.25425287,33.8039634 C1.38574713,34.5091463 1.54298851,35.2125 1.72321839,35.9131098 C1.81333333,36.2634146 1.90804598,36.6137195 2.01011494,36.9631098 C2.21241379,37.6609756 2.43678161,38.3560976 2.68229885,39.047561 C2.92781609,39.7390244 3.19356322,40.4277439 3.47770115,41.1128049 C3.61931034,41.454878 3.76735632,41.7960366 3.91816092,42.1362805 C5.43356322,45.5414634 7.39586207,48.8442073 9.59356322,51.9914634 C9.40413793,50.604878 9.82252874,46.827439 11.1577011,43.8841463 C14.8643678,35.7246951 27.5291954,12.2835366 30.0928736,6.99237805" id="Fill-61" fill="url(#linearGradient-18)" mask="url(#mask-17)"></path>
                                </g>
                                <g transform="translate(0.000000, 7.317073)">
                                    <mask id="mask-20" fill="white">
                                        <use xlink:href="#path-19"></use>
                                    </mask>
                                    <g id="Clip-64"></g>
                                    <path d="M23.577931,0.286280488 C23.577931,0.286280488 18.2905747,6.12621951 16.7071264,9.08871951 C16.6335632,9.22957317 16.5609195,9.37042683 16.4873563,9.51036585 C16.4855172,9.51493902 16.4836782,9.51859756 16.4809195,9.5222561 C16.4422989,9.60091463 16.3990805,9.68231707 16.3604598,9.76006098 C16.2151724,10.0490854 16.0809195,10.3390244 15.9494253,10.6280488 C15.9347126,10.6591463 15.9181609,10.6902439 15.9043678,10.7222561 C15.8289655,10.8878049 15.7535632,11.0588415 15.6809195,11.2262195 C15.6422989,11.3167683 15.6055172,11.410061 15.5687356,11.4996951 C13.9383908,15.4097561 13.4078161,19.3481707 13.6947126,23.2408537 C13.6993103,23.2939024 13.703908,23.3469512 13.7075862,23.4 C13.7903448,24.432622 13.9282759,25.4625 14.1204598,26.4868902 C14.2528736,27.1920732 14.4101149,27.8954268 14.5894253,28.5960366 C14.6804598,28.9463415 14.7751724,29.2966463 14.8772414,29.6460366 C15.0795402,30.3439024 15.303908,31.0390244 15.5485057,31.7304878 C15.7949425,32.4219512 16.0606897,33.1106707 16.343908,33.7957317 C16.4873563,34.1378049 16.6335632,34.4789634 16.7852874,34.8192073 C18.2997701,38.2243902 20.2611494,41.5271341 22.4597701,44.6743902 C22.4652874,44.6835366 22.4708046,44.6908537 22.4772414,44.7 C22.6914943,47.3460366 23.1016092,51.2579268 25.1282759,56.410061 C25.4013793,57.1033537 25.691954,57.7618902 25.9972414,58.3875 C26.6445977,59.7109756 27.3563218,60.8789634 28.0956322,61.9207317 C28.228046,62.1073171 28.3613793,62.2939024 28.4956322,62.4722561 C29.3342529,63.5871951 30.2004598,64.5365854 31.0427586,65.3560976 C31.0427586,65.3560976 27.3737931,62.829878 26.2022989,61.9207317 C20.5204598,57.5167683 12.3604598,50.7283537 5.13471264,42.3722561 C4.11402299,41.1932927 3.11724138,40.0472561 2.37885057,38.7521341 C-0.594022989,33.5368902 -0.974712644,26.8682927 2.34666667,21.8661585 C6.52781609,15.5661585 9.39402299,12.7445122 23.577931,0.286280488" id="Fill-63" fill="url(#linearGradient-21)" mask="url(#mask-20)"></path>
                                </g>
                            </g>
                            <g transform="translate(22.068966, 51.219512)">
                                <mask id="mask-23" fill="white">
                                    <use xlink:href="#path-22"></use>
                                </mask>
                                <g id="Clip-66"></g>
                                <path d="M2.08735632,9.74085366 C2.36229885,10.6189024 2.68597701,11.5408537 3.06666667,12.5067073 C3.33977011,13.2009146 3.63126437,13.8594512 3.93563218,14.4841463 C4.09747126,14.8152439 4.26298851,15.1371951 4.43402299,15.4481707 C4.93977011,16.3847561 5.47954023,17.2381098 6.03310345,18.0182927 C6.16643678,18.204878 6.29885057,18.392378 6.43402299,18.5707317 C7.04735632,19.3856707 7.6754023,20.1109756 8.29885057,20.7631098 C8.52597701,21.0018293 8.75494253,21.2332317 8.98022989,21.4536585 L8.98390805,21.4554878 C12.8634483,23.5033537 17.2698851,24.1957317 21.5062069,23.5426829 C21.5089655,23.5417683 21.5135632,23.5417683 21.5135632,23.5417683 C21.5181609,23.5408537 21.5218391,23.539939 21.5218391,23.539939 L21.5255172,23.5390244 C20.4229885,22.5823171 19.1494253,21.4463415 17.7590805,20.1612805 C17.0795402,19.5237805 16.3347126,18.8204268 15.4970115,18.0182927 L15.4878161,18.0182927 C14.7310345,17.2911585 13.9558621,16.5320122 13.165977,15.739939 C9.53931034,12.1079268 5.63126437,7.82652439 2.19034483,3.25243902 C1.59448276,2.46219512 1.01609195,1.65823171 0.448735632,0.848780488 C0.436781609,0.833231707 0.424827586,0.81402439 0.413793103,0.797560976 C0.587586207,2.94878049 0.892873563,5.93231707 2.08735632,9.74085366" id="Fill-65" fill="url(#linearGradient-24)" mask="url(#mask-23)"></path>
                            </g>
                        </g>
                    </g>
                </g>
                <g id="分组-8" filter="url(#filter-25)" transform="translate(23.859375, 73.546875)" fill-rule="nonzero" stroke="#979797" stroke-width="0.5">
                    <path d="" id="路径-10"></path>
                </g>
            </g>
        </g>
    </g>
</svg>